<svg xmlns="http://www.w3.org/2000/svg" xmlns:v="https://svgstorm.com"
viewBox = "0 0 1024 1024"
width="1024"
height="1024">
<g fill="None" fill-opacity="0.0" stroke="#000000" stroke-opacity="0.00" stroke-width="0.3"><path d="
M 0.00 1024.00 
L 1024.00 1024.00
L 1024.00 0.00
L 0.00 0.00
L 0.00 1024.00
M 529.00 43.00 
C 530.33 43.00 531.67 43.00 533.00 43.00
C 537.34 43.00 542.77 42.10 547.00 43.00
C 547.51 43.11 548.55 43.75 549.00 44.00
C 552.13 44.67 556.32 44.46 559.00 45.00
C 572.85 46.22 588.19 49.68 601.00 51.00
C 604.14 51.32 606.91 51.45 610.00 52.00
C 610.35 52.06 610.77 52.72 611.00 53.00
C 611.98 53.38 614.23 53.77 615.00 54.00
C 616.72 54.25 618.92 54.84 620.00 55.00
C 623.61 55.53 627.56 55.79 631.00 57.00
C 638.40 59.60 645.62 62.56 653.00 64.00
C 657.78 64.94 662.34 66.54 667.00 68.00
C 667.35 68.11 667.76 68.74 668.00 69.00
C 671.13 70.30 674.73 70.98 678.00 72.00
C 678.35 72.11 678.76 72.74 679.00 73.00
C 685.81 75.84 693.05 78.38 700.00 81.00
C 700.35 81.13 700.75 81.74 701.00 82.00
C 704.09 83.52 707.75 84.77 711.00 86.00
C 711.35 86.13 711.75 86.74 712.00 87.00
C 726.20 93.99 740.89 101.56 754.70 109.31 C 768.50 117.05 779.78 127.94 793.00 136.00
C 794.31 136.49 793.97 136.21 795.00 137.00
C 799.06 140.13 803.01 144.16 807.00 147.00
C 808.24 147.47 808.02 147.32 809.00 148.00
C 815.55 152.51 821.48 158.48 827.00 164.00
C 828.44 165.44 830.50 166.72 832.00 168.00
C 839.75 174.62 847.39 182.34 854.00 190.00
C 868.30 204.16 878.95 221.24 892.00 236.00
C 892.32 236.19 892.79 236.70 893.00 237.00
C 909.49 260.40 923.45 284.52 936.00 310.00
C 936.26 310.25 936.87 310.65 937.00 311.00
C 940.05 319.09 944.10 326.83 947.00 335.00
C 947.94 337.64 948.88 338.78 950.00 341.00
C 952.68 346.31 954.45 353.21 956.00 359.00
C 956.64 361.38 957.29 363.62 958.00 366.00
C 959.55 369.80 961.15 373.66 962.00 378.00
C 962.51 380.63 963.96 383.29 965.00 386.00
C 966.13 388.95 966.47 392.82 967.00 396.00
C 967.08 396.49 967.00 397.00 967.00 397.00
C 968.95 400.57 968.93 404.89 970.00 409.00
C 970.21 409.26 970.94 409.65 971.00 410.00
C 971.48 412.67 971.93 415.24 972.00 418.00
C 972.01 418.50 972.00 419.00 972.00 419.00
C 973.32 422.02 973.72 425.35 974.00 429.00
C 974.44 434.78 976.24 442.51 977.00 449.00
C 977.42 451.02 978.25 453.33 978.00 456.00
C 977.95 456.50 978.00 457.00 978.00 457.00
C 979.54 459.07 978.96 462.25 979.00 465.00
C 979.06 469.20 979.64 474.40 980.00 479.00
C 980.93 483.80 981.00 489.54 981.00 495.00
C 981.00 496.33 981.00 497.67 981.00 499.00
C 981.99 506.27 983.07 516.04 982.00 524.00
C 981.78 525.61 981.14 527.16 981.00 529.00
C 980.60 534.43 980.92 540.23 980.00 545.00
C 978.67 561.79 975.62 578.28 974.00 595.00
C 973.37 601.56 972.15 608.21 970.00 614.00
C 969.65 615.48 969.06 616.30 969.00 618.00
C 975.09 640.46 969.56 665.26 971.00 689.00 C 972.44 712.74 970.32 739.08 971.00 763.00 C 971.68 786.92 970.64 813.39 971.00 837.00 C 971.36 860.61 970.72 888.41 971.00 911.00 C 971.28 933.59 972.89 957.16 960.23 974.23 C 947.57 991.30 936.99 999.52 915.98 1002.98 C 894.97 1006.43 865.17 1003.09 843.00 1004.00 C 820.83 1004.91 790.39 1003.56 769.00 1004.00 C 747.61 1004.44 719.24 1006.00 702.92 996.08 C 686.60 986.15 672.24 972.85 670.00 955.00
C 667.32 957.15 661.64 956.46 658.32 958.32 C 655.00 960.18 649.82 961.29 646.00 962.00
C 643.09 962.54 640.80 963.25 638.00 964.00
C 631.39 966.69 622.58 969.81 615.00 970.00
C 614.50 970.01 614.00 970.00 614.00 970.00
C 608.84 972.82 601.14 973.41 595.00 974.00
C 578.32 975.61 561.80 978.67 545.00 980.00
C 540.17 980.93 534.43 980.60 529.00 981.00
C 527.09 981.14 525.71 981.77 524.00 982.00
C 516.04 983.06 506.19 981.98 499.00 981.00
C 497.67 981.00 496.33 981.00 495.00 981.00
C 489.53 981.00 483.74 980.91 479.00 980.00
C 474.40 979.63 469.24 979.06 465.00 979.00
C 462.17 978.96 459.11 979.56 457.00 978.00
C 456.50 978.00 456.00 978.00 456.00 978.00
C 453.29 978.26 450.99 977.42 449.00 977.00
C 442.51 976.23 434.67 974.43 429.00 974.00
C 425.35 973.72 422.02 973.30 419.00 972.00
C 418.50 972.03 418.00 972.00 418.00 972.00
C 415.28 971.94 412.69 971.48 410.00 971.00
C 409.65 970.94 409.26 970.21 409.00 970.00
C 404.91 968.93 400.55 968.95 397.00 967.00
C 396.50 966.99 396.00 967.00 396.00 967.00
C 392.87 966.48 388.97 966.14 386.00 965.00
C 383.34 963.98 380.54 962.50 378.00 962.00
C 373.70 961.16 369.77 959.53 366.00 958.00
C 363.63 957.29 361.41 956.64 359.00 956.00
C 353.25 954.46 346.32 952.69 341.00 950.00
C 338.88 948.93 337.59 947.92 335.00 947.00
C 326.86 944.11 319.10 940.06 311.00 937.00
C 310.65 936.87 310.25 936.26 310.00 936.00
C 284.54 923.47 260.36 909.47 237.00 893.00
C 236.70 892.79 236.19 892.32 236.00 892.00
C 221.34 879.04 204.96 866.92 190.00 854.00
C 182.29 847.34 174.58 839.69 168.00 832.00
C 166.68 830.46 165.38 828.38 164.00 827.00
C 158.44 821.44 152.48 815.51 148.00 809.00
C 147.42 808.16 147.41 808.10 147.00 807.00
C 144.13 802.97 140.11 799.03 137.00 795.00
C 136.32 794.12 136.43 794.15 136.00 793.00
C 127.93 779.76 116.99 768.56 109.25 754.75 C 101.50 740.95 93.99 726.22 87.00 712.00
C 86.74 711.75 86.13 711.35 86.00 711.00
C 84.78 707.77 83.53 704.10 82.00 701.00
C 81.74 700.75 81.13 700.35 81.00 700.00
C 78.39 693.07 75.85 685.84 73.00 679.00
C 72.74 678.76 72.11 678.35 72.00 678.00
C 70.99 674.76 70.32 671.15 69.00 668.00
C 68.74 667.76 68.11 667.35 68.00 667.00
C 66.55 662.37 64.94 657.81 64.00 653.00
C 62.55 645.58 59.60 638.40 57.00 631.00
C 55.80 627.59 55.54 623.63 55.00 620.00
C 54.72 619.02 54.24 616.65 54.00 615.00
C 53.65 613.82 53.17 612.66 53.00 611.00
C 51.04 592.04 46.91 567.61 43.00 547.00
C 42.18 542.69 43.00 537.40 43.00 533.00
C 43.00 531.67 43.00 530.33 43.00 529.00
C 41.57 518.51 41.58 505.42 43.00 495.00
C 43.00 493.67 43.00 492.33 43.00 491.00
C 43.00 485.85 43.10 480.43 44.00 476.00
C 45.40 460.13 48.88 442.81 50.00 428.00
C 50.46 421.94 51.23 414.05 54.00 409.00
C 54.01 408.50 54.00 408.00 54.00 408.00
C 54.12 402.84 55.88 392.84 59.00 389.00
C 59.08 388.51 59.00 388.00 59.00 388.00
C 59.68 383.89 60.44 378.16 63.00 375.00
C 63.02 374.50 63.00 374.00 63.00 374.00
C 63.25 367.51 67.06 360.18 69.00 354.00
C 69.11 353.65 69.74 353.24 70.00 353.00
C 82.09 324.02 94.20 292.94 111.30 266.30 C 128.41 239.67 145.92 216.72 167.00 193.00
C 174.77 184.25 183.51 175.93 192.00 168.00
C 213.50 144.51 239.34 130.15 265.08 112.08 C 290.82 94.01 324.20 82.01 353.00 70.00
C 353.24 69.74 353.65 69.11 354.00 69.00
C 360.15 67.07 367.48 63.25 374.00 63.00
C 374.50 62.98 375.00 63.00 375.00 63.00
C 378.17 60.43 383.87 59.68 388.00 59.00
C 388.49 58.92 389.00 59.00 389.00 59.00
C 392.86 55.87 402.82 54.12 408.00 54.00
C 408.50 53.99 409.00 54.00 409.00 54.00
C 414.16 51.18 421.86 50.59 428.00 50.00
C 444.04 48.45 459.90 45.42 476.00 44.00
C 480.49 43.09 485.85 43.00 491.00 43.00
C 492.33 43.00 493.67 43.00 495.00 43.00
C 505.49 41.57 518.58 41.58 529.00 43.00 Z"/>
</g>
<g fill="None" fill-opacity="0.0" stroke="#C8E1F9" stroke-opacity="0.09" stroke-width="0.3"><path d="
M 495.00 43.00 
C 506.33 43.00 517.67 43.00 529.00 43.00
C 518.58 41.58 505.49 41.57 495.00 43.00 Z"/>
</g>
<g fill="None" fill-opacity="0.0" stroke="#356FC2" stroke-opacity="0.45" stroke-width="0.3"><path d="
M 476.00 44.00 
C 480.98 43.56 486.67 43.59 491.00 43.00
C 485.85 43.00 480.49 43.09 476.00 44.00 Z"/>
</g>
<g fill="None" fill-opacity="0.0" stroke="#EE9126" stroke-opacity="1.00" stroke-width="0.3"><path d="
M 476.00 44.00 
C 459.90 45.42 444.04 48.45 428.00 50.00
C 422.10 51.14 415.53 53.85 409.00 54.00
C 409.00 54.00 408.50 53.99 408.00 54.00
C 402.89 56.79 395.02 58.01 389.00 59.00
C 389.00 59.00 388.49 58.92 388.00 59.00
C 385.33 61.17 378.67 62.86 375.00 63.00
C 375.00 63.00 374.50 62.98 374.00 63.00
C 370.34 65.97 357.89 69.96 354.00 69.00
C 353.65 69.11 353.24 69.74 353.00 70.00
C 346.05 77.51 330.77 77.16 321.93 82.93 C 313.08 88.69 300.85 91.94 291.77 97.77 C 282.69 103.60 272.21 108.24 263.30 114.30 C 254.40 120.37 245.55 125.61 236.92 131.92 C 228.29 138.23 220.15 145.20 211.75 151.75 C 203.35 158.31 196.15 166.04 188.00 173.00
C 182.68 177.55 177.50 182.73 173.00 188.00
C 166.07 196.11 158.70 202.85 152.25 211.25 C 145.79 219.64 138.50 227.58 132.25 236.25 C 125.99 244.91 120.34 254.37 114.25 263.25 C 108.15 272.12 104.03 282.07 98.08 291.08 C 92.13 300.09 89.14 312.40 83.23 321.23 C 77.32 330.06 77.57 346.00 70.00 353.00
C 69.74 353.24 69.11 353.65 69.00 354.00
C 69.98 357.93 65.94 370.38 63.00 374.00
C 63.00 374.00 63.02 374.50 63.00 375.00
C 62.86 378.65 61.15 385.34 59.00 388.00
C 59.00 388.00 59.08 388.51 59.00 389.00
C 58.02 394.98 56.77 402.92 54.00 408.00
C 54.00 408.00 54.01 408.50 54.00 409.00
C 53.85 415.49 51.10 422.14 50.00 428.00
C 48.88 442.81 45.40 460.13 44.00 476.00
C 43.56 480.98 43.59 486.67 43.00 491.00
C 43.00 492.33 43.00 493.67 43.00 495.00
C 43.00 506.33 43.00 517.67 43.00 529.00
C 43.00 530.33 43.00 531.67 43.00 533.00
C 43.54 536.94 42.67 543.49 43.00 547.00
C 46.91 567.61 51.04 592.04 53.00 611.00
C 53.27 612.06 53.78 613.48 54.00 615.00
C 54.24 616.65 54.72 619.02 55.00 620.00
C 55.88 623.14 56.42 628.64 57.00 631.00
C 59.60 638.40 62.55 645.58 64.00 653.00
C 65.33 657.35 69.05 662.77 68.00 667.00
C 68.11 667.35 68.74 667.76 69.00 668.00
C 71.50 670.32 72.62 675.49 72.00 678.00
C 72.11 678.35 72.74 678.76 73.00 679.00
C 76.25 682.01 81.88 696.60 81.00 700.00
C 81.13 700.35 81.74 700.75 82.00 701.00
C 84.47 703.37 86.68 708.40 86.00 711.00
C 86.13 711.35 86.74 711.75 87.00 712.00
C 94.12 718.82 96.33 731.73 101.92 740.08 C 107.52 748.42 113.43 757.83 118.30 766.70 C 123.18 775.56 132.43 783.53 136.00 793.00
C 136.43 794.15 136.32 794.12 137.00 795.00
C 139.27 796.67 145.33 802.58 147.00 807.00
C 147.41 808.10 147.42 808.16 148.00 809.00
C 152.87 812.59 158.98 821.24 164.00 827.00
C 167.62 831.15 172.41 834.80 176.00 839.00
C 178.78 842.25 181.80 845.26 185.00 848.00
C 193.25 855.05 202.30 862.74 209.75 870.25 C 217.20 877.76 230.70 883.12 236.00 892.00
C 236.19 892.32 236.70 892.79 237.00 893.00
C 243.62 892.60 252.60 903.55 259.75 907.25 C 266.89 910.96 277.05 917.09 284.23 921.77 C 291.40 926.45 304.14 929.90 310.00 936.00
C 310.25 936.26 310.65 936.87 311.00 937.00
C 316.57 935.55 329.44 944.28 335.00 947.00
C 337.59 947.92 338.88 948.93 341.00 950.00
C 345.46 951.65 353.66 953.98 359.00 956.00
C 361.41 956.64 363.63 957.29 366.00 958.00
C 369.95 959.18 374.36 960.89 378.00 962.00
C 380.54 962.50 383.34 963.98 386.00 965.00
C 388.56 965.71 392.88 964.47 396.00 967.00
C 396.00 967.00 396.50 966.99 397.00 967.00
C 400.53 967.08 406.42 967.97 409.00 970.00
C 409.26 970.21 409.65 970.94 410.00 971.00
C 412.85 970.02 415.22 970.47 418.00 972.00
C 418.00 972.00 418.50 972.03 419.00 972.00
C 422.72 971.75 425.97 973.43 429.00 974.00
C 434.67 974.43 442.51 976.23 449.00 977.00
C 451.69 977.32 453.93 976.47 456.00 978.00
C 456.00 978.00 456.50 978.00 457.00 978.00
C 459.85 978.00 462.86 978.71 465.00 979.00
C 469.24 979.06 474.40 979.63 479.00 980.00
C 484.33 980.42 490.33 980.36 495.00 981.00
C 496.33 981.00 497.67 981.00 499.00 981.00
C 507.03 981.00 516.84 982.27 524.00 982.00
C 525.71 981.77 527.09 981.14 529.00 981.00
C 533.82 980.10 539.59 980.43 545.00 980.00
C 561.80 978.67 578.32 975.61 595.00 974.00
C 600.90 972.86 607.47 970.15 614.00 970.00
C 614.00 970.00 614.50 970.01 615.00 970.00
C 621.48 966.46 630.65 965.96 638.00 964.00
C 640.80 963.25 643.09 962.54 646.00 962.00
C 649.11 961.15 654.13 957.62 657.68 957.68 C 661.23 957.74 667.28 952.31 670.00 953.00
C 665.09 903.56 670.28 853.12 669.00 803.00 C 667.72 752.88 669.00 701.26 669.00 651.00
C 654.99 651.03 641.01 650.96 627.00 651.00 C 612.99 651.04 599.03 650.92 585.00 651.00 C 570.97 651.08 557.06 650.83 543.00 651.00 C 528.94 651.17 514.02 650.64 500.00 651.00 C 485.98 651.36 471.86 650.19 458.00 651.00 C 444.14 651.81 429.62 649.19 416.00 651.00 C 402.38 652.81 386.04 647.10 373.00 651.00
C 368.03 652.84 363.86 661.81 359.25 665.25 C 354.63 668.69 349.08 674.92 345.00 679.00
C 330.09 696.45 311.93 711.63 296.00 728.00
C 295.85 697.04 296.20 665.95 296.00 635.00 C 295.80 604.05 296.38 571.80 296.00 541.00 C 295.62 510.21 296.81 477.28 296.00 447.00 C 295.19 416.72 297.78 382.06 296.00 353.00 C 294.22 323.94 301.15 299.61 331.00 294.00
C 359.76 288.85 391.05 294.36 421.00 293.00 C 450.95 291.64 482.84 292.99 513.00 293.00 C 543.16 293.01 574.96 291.60 605.00 293.00 C 635.04 294.40 667.16 288.83 696.00 294.00
C 704.50 294.58 702.25 295.17 710.75 299.25 C 719.24 303.34 726.90 313.97 729.32 322.68 C 731.74 331.38 730.63 331.87 731.00 340.00 C 731.37 348.13 730.82 353.53 731.00 361.00 C 731.18 368.47 730.93 373.85 731.00 381.00 C 731.07 388.15 730.97 394.94 731.00 402.00 C 731.03 409.06 731.00 415.99 731.00 423.00 C 731.00 430.01 731.02 437.04 731.00 444.00 C 730.98 450.96 731.06 458.12 731.00 465.00 C 730.94 471.88 731.14 478.18 731.00 485.00 C 730.86 491.82 731.30 499.25 731.00 506.00 C 730.70 512.75 731.67 520.49 731.00 527.00 C 730.33 533.51 732.48 542.05 731.00 548.00 C 729.52 553.95 734.29 564.31 731.00 569.00
C 753.81 566.79 779.30 570.13 802.00 569.00 C 824.70 567.87 852.15 569.83 874.00 569.00 C 895.85 568.17 920.04 567.85 937.08 577.92 C 954.13 587.99 964.20 600.28 969.00 618.00
C 969.06 616.30 969.65 615.48 970.00 614.00
C 971.44 607.87 972.89 600.77 974.00 595.00
C 975.62 578.28 978.67 561.79 980.00 545.00
C 980.43 539.59 980.11 533.76 981.00 529.00
C 981.14 527.16 981.78 525.61 982.00 524.00
C 982.27 516.76 981.00 507.04 981.00 499.00
C 981.00 497.67 981.00 496.33 981.00 495.00
C 980.35 490.26 980.42 484.33 980.00 479.00
C 979.64 474.40 979.06 469.20 979.00 465.00
C 978.71 462.81 978.00 459.84 978.00 457.00
C 978.00 457.00 977.95 456.50 978.00 456.00
C 976.50 453.98 977.31 451.61 977.00 449.00
C 976.24 442.51 974.44 434.78 974.00 429.00
C 973.43 425.93 971.74 422.75 972.00 419.00
C 972.00 419.00 972.01 418.50 972.00 418.00
C 970.46 415.18 970.02 412.84 971.00 410.00
C 970.94 409.65 970.21 409.26 970.00 409.00
C 967.97 406.42 967.08 400.53 967.00 397.00
C 967.00 397.00 967.08 396.49 967.00 396.00
C 964.48 392.89 965.69 388.48 965.00 386.00
C 963.96 383.29 962.51 380.63 962.00 378.00
C 960.87 374.31 959.20 369.99 958.00 366.00
C 957.29 363.62 956.64 361.38 956.00 359.00
C 953.97 353.62 951.64 345.41 950.00 341.00
C 948.88 338.78 947.94 337.64 947.00 335.00
C 944.25 329.38 935.57 316.54 937.00 311.00
C 936.87 310.65 936.26 310.25 936.00 310.00
C 929.91 304.17 926.82 291.95 922.23 284.77 C 917.64 277.59 911.28 267.61 907.70 260.30 C 904.11 253.00 892.59 243.72 893.00 237.00
C 892.79 236.70 892.32 236.19 892.00 236.00
C 883.11 230.70 878.18 217.80 870.75 210.25 C 863.32 202.69 855.06 193.26 848.00 185.00
C 845.22 181.75 842.20 178.74 839.00 176.00
C 834.75 172.37 831.10 167.57 827.00 164.00
C 821.19 158.93 812.54 152.81 809.00 148.00
C 808.02 147.32 808.24 147.47 807.00 147.00
C 802.53 145.32 796.63 139.21 795.00 137.00
C 793.97 136.21 794.31 136.49 793.00 136.00
C 783.59 132.46 776.11 123.59 767.30 118.70 C 758.49 113.80 749.12 107.93 740.75 102.25 C 732.39 96.57 718.87 94.17 712.00 87.00
C 711.75 86.74 711.35 86.13 711.00 86.00
C 708.37 86.68 703.32 84.42 701.00 82.00
C 700.75 81.74 700.35 81.13 700.00 81.00
C 696.55 81.90 681.97 76.21 679.00 73.00
C 678.76 72.74 678.35 72.11 678.00 72.00
C 675.46 72.63 670.29 71.48 668.00 69.00
C 667.76 68.74 667.35 68.11 667.00 68.00
C 662.76 69.05 657.28 65.31 653.00 64.00
C 645.62 62.56 638.40 59.60 631.00 57.00
C 628.60 56.41 623.11 55.87 620.00 55.00
C 618.92 54.84 616.72 54.25 615.00 54.00
C 613.19 53.74 612.22 54.46 611.00 53.00
C 610.77 52.72 610.35 52.06 610.00 52.00
C 606.69 53.14 604.26 51.72 601.00 51.00
C 588.19 49.68 572.85 46.22 559.00 45.00
C 555.45 44.69 551.88 45.59 549.00 44.00
C 548.55 43.75 547.51 43.11 547.00 43.00
C 542.85 43.03 537.26 43.58 533.00 43.00
C 531.67 43.00 530.33 43.00 529.00 43.00
C 517.67 43.00 506.33 43.00 495.00 43.00
C 493.67 43.00 492.33 43.00 491.00 43.00
C 486.67 43.59 480.98 43.56 476.00 44.00 Z"/>
</g>
<g fill="None" fill-opacity="0.0" stroke="#2368BE" stroke-opacity="0.47" stroke-width="0.3"><path d="
M 547.00 43.00 
C 542.77 42.10 537.34 43.00 533.00 43.00
C 537.26 43.58 542.85 43.03 547.00 43.00 Z"/>
</g>
<g fill="None" fill-opacity="0.0" stroke="#356ABB" stroke-opacity="0.45" stroke-width="0.3"><path d="
M 559.00 45.00 
C 556.32 44.46 552.13 44.67 549.00 44.00
C 551.88 45.59 555.45 44.69 559.00 45.00 Z"/>
</g>
<g fill="None" fill-opacity="0.0" stroke="#3D70C5" stroke-opacity="0.41" stroke-width="0.3"><path d="
M 409.00 54.00 
C 415.53 53.85 422.10 51.14 428.00 50.00
C 421.86 50.59 414.16 51.18 409.00 54.00 Z"/>
</g>
<g fill="None" fill-opacity="0.0" stroke="#2B67C4" stroke-opacity="0.43" stroke-width="0.3"><path d="
M 610.00 52.00 
C 606.91 51.45 604.14 51.32 601.00 51.00
C 604.26 51.72 606.69 53.14 610.00 52.00 Z"/>
</g>
<g fill="None" fill-opacity="0.0" stroke="#2067C3" stroke-opacity="0.39" stroke-width="0.3"><path d="
M 615.00 54.00 
C 614.23 53.77 611.98 53.38 611.00 53.00
C 612.22 54.46 613.19 53.74 615.00 54.00 Z"/>
</g>
<g fill="None" fill-opacity="0.0" stroke="#3B74CB" stroke-opacity="0.38" stroke-width="0.3"><path d="
M 389.00 59.00 
C 395.02 58.01 402.89 56.79 408.00 54.00
C 402.82 54.12 392.86 55.87 389.00 59.00 Z"/>
</g>
<g fill="None" fill-opacity="0.0" stroke="#376FC8" stroke-opacity="0.38" stroke-width="0.3"><path d="
M 631.00 57.00 
C 627.56 55.79 623.61 55.53 620.00 55.00
C 623.11 55.87 628.60 56.41 631.00 57.00 Z"/>
</g>
<g fill="None" fill-opacity="0.0" stroke="#3670C7" stroke-opacity="0.40" stroke-width="0.3"><path d="
M 375.00 63.00 
C 378.67 62.86 385.33 61.17 388.00 59.00
C 383.87 59.68 378.17 60.43 375.00 63.00 Z"/>
</g>
<g fill="None" fill-opacity="0.0" stroke="#3571CD" stroke-opacity="0.35" stroke-width="0.3"><path d="
M 354.00 69.00 
C 357.89 69.96 370.34 65.97 374.00 63.00
C 367.48 63.25 360.15 67.07 354.00 69.00 Z"/>
</g>
<g fill="None" fill-opacity="0.0" stroke="#4475CD" stroke-opacity="0.33" stroke-width="0.3"><path d="
M 667.00 68.00 
C 662.34 66.54 657.78 64.94 653.00 64.00
C 657.28 65.31 662.76 69.05 667.00 68.00 Z"/>
</g>
<g fill="None" fill-opacity="0.0" stroke="#316BBC" stroke-opacity="0.44" stroke-width="0.3"><path d="
M 678.00 72.00 
C 674.73 70.98 671.13 70.30 668.00 69.00
C 670.29 71.48 675.46 72.63 678.00 72.00 Z"/>
</g>
<g fill="None" fill-opacity="0.0" stroke="#3C76C9" stroke-opacity="0.37" stroke-width="0.3"><path d="
M 192.00 168.00 
C 190.63 169.50 189.39 171.61 188.00 173.00
C 196.15 166.04 203.35 158.31 211.75 151.75 C 220.15 145.20 228.29 138.23 236.92 131.92 C 245.55 125.61 254.40 120.37 263.30 114.30 C 272.21 108.24 282.69 103.60 291.77 97.77 C 300.85 91.94 313.08 88.69 321.93 82.93 C 330.77 77.16 346.05 77.51 353.00 70.00
C 324.20 82.01 290.82 94.01 265.08 112.08 C 239.34 130.15 213.50 144.51 192.00 168.00 Z"/>
</g>
<g fill="None" fill-opacity="0.0" stroke="#2F6EC8" stroke-opacity="0.37" stroke-width="0.3"><path d="
M 700.00 81.00 
C 693.05 78.38 685.81 75.84 679.00 73.00
C 681.97 76.21 696.55 81.90 700.00 81.00 Z"/>
</g>
<g fill="None" fill-opacity="0.0" stroke="#1F6BC2" stroke-opacity="0.42" stroke-width="0.3"><path d="
M 711.00 86.00 
C 707.75 84.77 704.09 83.52 701.00 82.00
C 703.32 84.42 708.37 86.68 711.00 86.00 Z"/>
</g>
<g fill="None" fill-opacity="0.0" stroke="#3C75CB" stroke-opacity="0.33" stroke-width="0.3"><path d="
M 793.00 136.00 
C 779.78 127.94 768.50 117.05 754.70 109.31 C 740.89 101.56 726.20 93.99 712.00 87.00
C 718.87 94.17 732.39 96.57 740.75 102.25 C 749.12 107.93 758.49 113.80 767.30 118.70 C 776.11 123.59 783.59 132.46 793.00 136.00 Z"/>
</g>
<g fill="None" fill-opacity="0.0" stroke="#3671C8" stroke-opacity="0.34" stroke-width="0.3"><path d="
M 807.00 147.00 
C 803.01 144.16 799.06 140.13 795.00 137.00
C 796.63 139.21 802.53 145.32 807.00 147.00 Z"/>
</g>
<g fill="None" fill-opacity="0.0" stroke="#3370CB" stroke-opacity="0.33" stroke-width="0.3"><path d="
M 827.00 164.00 
C 821.48 158.48 815.55 152.51 809.00 148.00
C 812.54 152.81 821.19 158.93 827.00 164.00 Z"/>
</g>
<g fill="None" fill-opacity="0.0" stroke="#1D66BE" stroke-opacity="0.62" stroke-width="0.3"><path d="
M 839.00 176.00 
C 836.58 173.58 834.37 170.37 832.00 168.00
C 830.50 166.72 828.44 165.44 827.00 164.00
C 831.10 167.57 834.75 172.37 839.00 176.00 Z"/>
</g>
<g fill="None" fill-opacity="0.0" stroke="#3A6FCC" stroke-opacity="0.14" stroke-width="0.3"><path d="
M 167.00 193.00 
C 168.80 191.27 171.29 189.71 173.00 188.00
C 177.50 182.73 182.68 177.55 188.00 173.00
C 189.39 171.61 190.63 169.50 192.00 168.00
C 183.51 175.93 174.77 184.25 167.00 193.00 Z"/>
</g>
<g fill="None" fill-opacity="0.0" stroke="#6391DE" stroke-opacity="0.08" stroke-width="0.3"><path d="
M 839.00 176.00 
C 842.20 178.74 845.22 181.75 848.00 185.00
C 849.76 186.76 852.28 188.30 854.00 190.00
C 847.39 182.34 839.75 174.62 832.00 168.00
C 834.37 170.37 836.58 173.58 839.00 176.00 Z"/>
</g>
<g fill="None" fill-opacity="0.0" stroke="#3783D9" stroke-opacity="0.40" stroke-width="0.3"><path d="
M 892.00 236.00 
C 878.95 221.24 868.30 204.16 854.00 190.00
C 852.28 188.30 849.76 186.76 848.00 185.00
C 855.06 193.26 863.32 202.69 870.75 210.25 C 878.18 217.80 883.11 230.70 892.00 236.00 Z"/>
</g>
<g fill="None" fill-opacity="0.0" stroke="#3B75C9" stroke-opacity="0.37" stroke-width="0.3"><path d="
M 167.00 193.00 
C 145.92 216.72 128.41 239.67 111.30 266.30 C 94.20 292.94 82.09 324.02 70.00 353.00
C 77.57 346.00 77.32 330.06 83.23 321.23 C 89.14 312.40 92.13 300.09 98.08 291.08 C 104.03 282.07 108.15 272.12 114.25 263.25 C 120.34 254.37 125.99 244.91 132.25 236.25 C 138.50 227.58 145.79 219.64 152.25 211.25 C 158.70 202.85 166.07 196.11 173.00 188.00
C 171.29 189.71 168.80 191.27 167.00 193.00 Z"/>
</g>
<g fill="None" fill-opacity="0.0" stroke="#4589DC" stroke-opacity="0.34" stroke-width="0.3"><path d="
M 936.00 310.00 
C 923.45 284.52 909.49 260.40 893.00 237.00
C 892.59 243.72 904.11 253.00 907.70 260.30 C 911.28 267.61 917.64 277.59 922.23 284.77 C 926.82 291.95 929.91 304.17 936.00 310.00 Z"/>
</g>
<g fill="None" fill-opacity="0.0" stroke="#DCE6F2" stroke-opacity="1.00" stroke-width="0.3"><path d="
M 331.00 294.00 
C 371.21 291.26 411.63 294.73 452.00 294.00 C 492.37 293.27 533.57 293.24 574.00 294.00 C 614.43 294.76 655.66 291.25 696.00 294.00
C 667.16 288.83 635.04 294.40 605.00 293.00 C 574.96 291.60 543.16 293.01 513.00 293.00 C 482.84 292.99 450.95 291.64 421.00 293.00 C 391.05 294.36 359.76 288.85 331.00 294.00 Z"/>
</g>
<g fill="None" fill-opacity="0.0" stroke="#FEFEFE" stroke-opacity="1.00" stroke-width="0.3"><path d="
M 345.00 679.00 
C 348.87 674.47 353.99 668.29 358.75 664.75 C 363.51 661.21 367.43 652.67 373.00 651.00
C 386.04 647.10 402.38 652.81 416.00 651.00 C 429.62 649.19 444.14 651.81 458.00 651.00 C 471.86 650.19 485.98 651.36 500.00 651.00 C 514.02 650.64 528.94 651.17 543.00 651.00 C 557.06 650.83 570.97 651.08 585.00 651.00 C 599.03 650.92 612.99 651.04 627.00 651.00 C 641.01 650.96 654.99 651.03 669.00 651.00
C 669.00 631.15 669.55 608.08 683.30 593.30 C 697.06 578.53 712.10 570.83 731.00 569.00
C 734.29 564.31 729.52 553.95 731.00 548.00 C 732.48 542.05 730.33 533.51 731.00 527.00 C 731.67 520.49 730.70 512.75 731.00 506.00 C 731.30 499.25 730.86 491.82 731.00 485.00 C 731.14 478.18 730.94 471.88 731.00 465.00 C 731.06 458.12 730.98 450.96 731.00 444.00 C 731.02 437.04 731.00 430.01 731.00 423.00 C 731.00 415.99 731.03 409.06 731.00 402.00 C 730.97 394.94 731.07 388.15 731.00 381.00 C 730.93 373.85 731.18 368.47 731.00 361.00 C 730.82 353.53 731.37 348.13 731.00 340.00 C 730.63 331.87 731.74 331.38 729.32 322.68 C 726.90 313.97 719.24 303.34 710.75 299.25 C 702.25 295.17 704.50 294.58 696.00 294.00
C 655.66 291.25 614.43 294.76 574.00 294.00 C 533.57 293.24 492.37 293.27 452.00 294.00 C 411.63 294.73 371.21 291.26 331.00 294.00
C 301.15 299.61 294.22 323.94 296.00 353.00 C 297.78 382.06 295.19 416.72 296.00 447.00 C 296.81 477.28 295.62 510.21 296.00 541.00 C 296.38 571.80 295.80 604.05 296.00 635.00 C 296.20 665.95 295.85 697.04 296.00 728.00
C 311.93 711.63 330.09 696.45 345.00 679.00
M 645.00 386.00 
C 635.91 394.96 629.17 402.95 618.75 410.75 C 608.34 418.56 604.00 432.23 589.00 432.00 C 574.00 431.77 554.09 432.10 538.00 432.00 C 521.91 431.90 503.58 432.05 487.00 432.00 C 470.42 431.95 452.78 432.03 436.00 432.00 C 419.22 431.97 401.83 432.02 385.00 432.00
C 385.00 416.67 385.00 401.33 385.00 386.00
C 471.67 386.00 558.33 386.00 645.00 386.00
M 574.00 452.00 
C 567.56 459.55 561.22 463.69 554.25 471.25 C 547.28 478.81 540.89 480.82 533.75 489.75 C 526.62 498.68 513.99 497.46 502.00 497.00 C 490.01 496.54 475.53 497.21 463.00 497.00 C 450.47 496.79 436.75 497.11 424.00 497.00 C 411.25 496.89 397.82 497.08 385.00 497.00
C 385.00 482.00 385.00 467.00 385.00 452.00
C 448.00 452.00 511.00 452.00 574.00 452.00
M 504.00 518.00 
C 492.63 526.04 486.70 534.31 475.75 543.75 C 464.80 553.19 456.78 565.40 440.00 563.00 C 423.22 560.60 402.17 564.80 385.00 563.00
C 385.00 547.67 385.00 532.33 385.00 517.00
C 424.50 517.67 465.32 515.67 504.00 518.00 Z"/>
</g>
<g fill="None" fill-opacity="0.0" stroke="#2E7DD9" stroke-opacity="0.39" stroke-width="0.3"><path d="
M 947.00 335.00 
C 944.10 326.83 940.05 319.09 937.00 311.00
C 935.57 316.54 944.25 329.38 947.00 335.00 Z"/>
</g>
<g fill="None" fill-opacity="0.0" stroke="#2F7CD9" stroke-opacity="0.39" stroke-width="0.3"><path d="
M 956.00 359.00 
C 954.45 353.21 952.68 346.31 950.00 341.00
C 951.64 345.41 953.97 353.62 956.00 359.00 Z"/>
</g>
<g fill="None" fill-opacity="0.0" stroke="#3671CD" stroke-opacity="0.35" stroke-width="0.3"><path d="
M 63.00 374.00 
C 65.94 370.38 69.98 357.93 69.00 354.00
C 67.06 360.18 63.25 367.51 63.00 374.00 Z"/>
</g>
<g fill="None" fill-opacity="0.0" stroke="#287AD4" stroke-opacity="0.43" stroke-width="0.3"><path d="
M 962.00 378.00 
C 961.15 373.66 959.55 369.80 958.00 366.00
C 959.20 369.99 960.87 374.31 962.00 378.00 Z"/>
</g>
<g fill="None" fill-opacity="0.0" stroke="#356EC6" stroke-opacity="0.40" stroke-width="0.3"><path d="
M 59.00 388.00 
C 61.15 385.34 62.86 378.65 63.00 375.00
C 60.44 378.16 59.68 383.89 59.00 388.00 Z"/>
</g>
<g fill="None" fill-opacity="0.0" stroke="#B7B7B7" stroke-opacity="1.00" stroke-width="0.3"><path d="
M 645.00 386.00 
C 558.33 386.00 471.67 386.00 385.00 386.00
C 385.00 401.33 385.00 416.67 385.00 432.00
C 401.83 432.02 419.22 431.97 436.00 432.00 C 452.78 432.03 470.42 431.95 487.00 432.00 C 503.58 432.05 521.91 431.90 538.00 432.00 C 554.09 432.10 574.00 431.77 589.00 432.00 C 604.00 432.23 608.34 418.56 618.75 410.75 C 629.17 402.95 635.91 394.96 645.00 386.00 Z"/>
</g>
<g fill="None" fill-opacity="0.0" stroke="#307DD3" stroke-opacity="0.43" stroke-width="0.3"><path d="
M 967.00 396.00 
C 966.47 392.82 966.13 388.95 965.00 386.00
C 965.69 388.48 964.48 392.89 967.00 396.00 Z"/>
</g>
<g fill="None" fill-opacity="0.0" stroke="#3B74CB" stroke-opacity="0.38" stroke-width="0.3"><path d="
M 54.00 408.00 
C 56.77 402.92 58.02 394.98 59.00 389.00
C 55.88 392.84 54.12 402.84 54.00 408.00 Z"/>
</g>
<g fill="None" fill-opacity="0.0" stroke="#2E7CD2" stroke-opacity="0.44" stroke-width="0.3"><path d="
M 970.00 409.00 
C 968.93 404.89 968.95 400.57 967.00 397.00
C 967.08 400.53 967.97 406.42 970.00 409.00 Z"/>
</g>
<g fill="None" fill-opacity="0.0" stroke="#3D70C5" stroke-opacity="0.41" stroke-width="0.3"><path d="
M 50.00 428.00 
C 51.10 422.14 53.85 415.49 54.00 409.00
C 51.23 414.05 50.46 421.94 50.00 428.00 Z"/>
</g>
<g fill="None" fill-opacity="0.0" stroke="#2A7AD8" stroke-opacity="0.42" stroke-width="0.3"><path d="
M 972.00 418.00 
C 971.93 415.24 971.48 412.67 971.00 410.00
C 970.02 412.84 970.46 415.18 972.00 418.00 Z"/>
</g>
<g fill="None" fill-opacity="0.0" stroke="#377ED1" stroke-opacity="0.43" stroke-width="0.3"><path d="
M 974.00 429.00 
C 973.72 425.35 973.32 422.02 972.00 419.00
C 971.74 422.75 973.43 425.93 974.00 429.00 Z"/>
</g>
<g fill="None" fill-opacity="0.0" stroke="#2B7CDA" stroke-opacity="0.43" stroke-width="0.3"><path d="
M 978.00 456.00 
C 978.25 453.33 977.42 451.02 977.00 449.00
C 977.31 451.61 976.50 453.98 978.00 456.00 Z"/>
</g>
<g fill="None" fill-opacity="0.0" stroke="#B7B7B7" stroke-opacity="1.00" stroke-width="0.3"><path d="
M 574.00 452.00 
C 511.00 452.00 448.00 452.00 385.00 452.00
C 385.00 467.00 385.00 482.00 385.00 497.00
C 397.82 497.08 411.25 496.89 424.00 497.00 C 436.75 497.11 450.47 496.79 463.00 497.00 C 475.53 497.21 490.01 496.54 502.00 497.00 C 513.99 497.46 526.62 498.68 533.75 489.75 C 540.89 480.82 547.28 478.81 554.25 471.25 C 561.22 463.69 567.56 459.55 574.00 452.00 Z"/>
</g>
<g fill="None" fill-opacity="0.0" stroke="#387DD7" stroke-opacity="0.42" stroke-width="0.3"><path d="
M 979.00 465.00 
C 978.96 462.25 979.54 459.07 978.00 457.00
C 978.00 459.84 978.71 462.81 979.00 465.00 Z"/>
</g>
<g fill="None" fill-opacity="0.0" stroke="#346FC2" stroke-opacity="0.45" stroke-width="0.3"><path d="
M 43.00 491.00 
C 43.59 486.67 43.56 480.98 44.00 476.00
C 43.10 480.43 43.00 485.85 43.00 491.00 Z"/>
</g>
<g fill="None" fill-opacity="0.0" stroke="#2379D4" stroke-opacity="0.48" stroke-width="0.3"><path d="
M 981.00 495.00 
C 981.00 489.54 980.93 483.80 980.00 479.00
C 980.42 484.33 980.35 490.26 981.00 495.00 Z"/>
</g>
<g fill="None" fill-opacity="0.0" stroke="#2D6EC8" stroke-opacity="0.21" stroke-width="0.3"><path d="
M 43.00 529.00 
C 43.00 517.67 43.00 506.33 43.00 495.00
C 41.58 505.42 41.57 518.51 43.00 529.00 Z"/>
</g>
<g fill="None" fill-opacity="0.0" stroke="#3D89E4" stroke-opacity="0.10" stroke-width="0.3"><path d="
M 982.00 524.00 
C 983.07 516.04 981.99 506.27 981.00 499.00
C 981.00 507.04 982.27 516.76 982.00 524.00 Z"/>
</g>
<g fill="None" fill-opacity="0.0" stroke="#B7B7B7" stroke-opacity="1.00" stroke-width="0.3"><path d="
M 504.00 518.00 
C 465.32 515.67 424.50 517.67 385.00 517.00
C 385.00 532.33 385.00 547.67 385.00 563.00
C 402.17 564.80 423.22 560.60 440.00 563.00 C 456.78 565.40 464.80 553.19 475.75 543.75 C 486.70 534.31 492.63 526.04 504.00 518.00 Z"/>
</g>
<g fill="None" fill-opacity="0.0" stroke="#2A7AD1" stroke-opacity="0.47" stroke-width="0.3"><path d="
M 980.00 545.00 
C 980.92 540.23 980.60 534.43 981.00 529.00
C 980.11 533.76 980.43 539.59 980.00 545.00 Z"/>
</g>
<g fill="None" fill-opacity="0.0" stroke="#2368BE" stroke-opacity="0.47" stroke-width="0.3"><path d="
M 43.00 547.00 
C 42.67 543.49 43.54 536.94 43.00 533.00
C 43.00 537.40 42.18 542.69 43.00 547.00 Z"/>
</g>
<g fill="None" fill-opacity="0.0" stroke="#FF0402" stroke-opacity="1.00" stroke-width="0.3"><path d="
M 669.00 651.00 
C 669.00 701.26 667.72 752.88 669.00 803.00 C 670.28 853.12 665.09 903.56 670.00 953.00
C 670.03 953.31 669.91 954.32 670.00 955.00
C 672.24 972.85 686.60 986.15 702.92 996.08 C 719.24 1006.00 747.61 1004.44 769.00 1004.00 C 790.39 1003.56 820.83 1004.91 843.00 1004.00 C 865.17 1003.09 894.97 1006.43 915.98 1002.98 C 936.99 999.52 947.57 991.30 960.23 974.23 C 972.89 957.16 971.28 933.59 971.00 911.00 C 970.72 888.41 971.36 860.61 971.00 837.00 C 970.64 813.39 971.68 786.92 971.00 763.00 C 970.32 739.08 972.44 712.74 971.00 689.00 C 969.56 665.26 975.09 640.46 969.00 618.00
C 964.20 600.28 954.13 587.99 937.08 577.92 C 920.04 567.85 895.85 568.17 874.00 569.00 C 852.15 569.83 824.70 567.87 802.00 569.00 C 779.30 570.13 753.81 566.79 731.00 569.00
C 712.10 570.83 697.06 578.53 683.30 593.30 C 669.55 608.08 669.00 631.15 669.00 651.00
M 930.00 772.00 
C 930.82 780.49 930.81 790.58 930.00 799.00
C 930.00 853.90 902.08 907.86 846.93 921.93 C 791.77 935.99 723.83 921.93 713.00 859.00
C 733.68 857.41 754.06 854.61 775.00 854.00
C 776.51 868.96 789.38 882.94 805.00 883.00
C 809.57 883.25 814.43 883.25 819.00 883.00
C 855.51 881.02 862.88 835.55 864.00 807.00
C 849.72 819.74 832.02 827.79 813.00 829.00
C 807.55 829.78 801.37 829.65 796.00 829.00
C 752.95 828.14 707.00 792.70 707.00 747.00
C 706.45 741.29 706.07 734.70 707.00 729.00
C 709.05 691.29 738.41 663.33 774.01 653.01 C 809.60 642.69 857.03 645.67 887.70 670.30 C 918.36 694.94 930.00 733.69 930.00 772.00 Z"/>
</g>
<g fill="None" fill-opacity="0.0" stroke="#3A7FD4" stroke-opacity="0.42" stroke-width="0.3"><path d="
M 970.00 614.00 
C 972.15 608.21 973.37 601.56 974.00 595.00
C 972.89 600.77 971.44 607.87 970.00 614.00 Z"/>
</g>
<g fill="None" fill-opacity="0.0" stroke="#2067C3" stroke-opacity="0.39" stroke-width="0.3"><path d="
M 54.00 615.00 
C 53.78 613.48 53.27 612.06 53.00 611.00
C 53.17 612.66 53.65 613.82 54.00 615.00 Z"/>
</g>
<g fill="None" fill-opacity="0.0" stroke="#376FC8" stroke-opacity="0.38" stroke-width="0.3"><path d="
M 57.00 631.00 
C 56.42 628.64 55.88 623.14 55.00 620.00
C 55.54 623.63 55.80 627.59 57.00 631.00 Z"/>
</g>
<g fill="None" fill-opacity="0.0" stroke="#FFFEFE" stroke-opacity="1.00" stroke-width="0.3"><path d="
M 707.00 729.00 
C 706.68 734.96 707.00 741.03 707.00 747.00
C 707.00 792.70 752.95 828.14 796.00 829.00
C 801.63 829.11 807.37 829.22 813.00 829.00
C 832.02 827.79 849.72 819.74 864.00 807.00
C 862.88 835.55 855.51 881.02 819.00 883.00
C 814.40 883.75 809.54 883.74 805.00 883.00
C 789.38 882.94 776.51 868.96 775.00 854.00
C 754.06 854.61 733.68 857.41 713.00 859.00
C 723.83 921.93 791.77 935.99 846.93 921.93 C 902.08 907.86 930.00 853.90 930.00 799.00
C 930.00 790.00 930.00 781.00 930.00 772.00
C 930.00 733.69 918.36 694.94 887.70 670.30 C 857.03 645.67 809.60 642.69 774.01 653.01 C 738.41 663.33 709.05 691.29 707.00 729.00
M 858.00 737.00 
C 858.51 741.20 858.50 745.86 858.00 750.00
C 857.50 774.93 837.65 791.45 813.00 791.00 C 788.35 790.55 770.50 771.81 770.00 747.00
C 769.46 742.53 769.58 737.38 770.00 733.00
C 770.00 706.99 791.03 687.96 816.00 691.00 C 840.97 694.04 857.52 713.01 858.00 737.00 Z"/>
</g>
<g fill="None" fill-opacity="0.0" stroke="#B0C4DD" stroke-opacity="1.00" stroke-width="0.3"><path d="
M 345.00 679.00 
C 349.08 674.92 354.63 668.69 359.25 665.25 C 363.86 661.81 368.03 652.84 373.00 651.00
C 367.43 652.67 363.51 661.21 358.75 664.75 C 353.99 668.29 348.87 674.47 345.00 679.00 Z"/>
</g>
<g fill="None" fill-opacity="0.0" stroke="#4475CD" stroke-opacity="0.33" stroke-width="0.3"><path d="
M 68.00 667.00 
C 69.05 662.77 65.33 657.35 64.00 653.00
C 64.94 657.81 66.55 662.37 68.00 667.00 Z"/>
</g>
<g fill="None" fill-opacity="0.0" stroke="#316BBC" stroke-opacity="0.44" stroke-width="0.3"><path d="
M 72.00 678.00 
C 72.62 675.49 71.50 670.32 69.00 668.00
C 70.32 671.15 70.99 674.76 72.00 678.00 Z"/>
</g>
<g fill="None" fill-opacity="0.0" stroke="#2F6EC8" stroke-opacity="0.37" stroke-width="0.3"><path d="
M 81.00 700.00 
C 81.88 696.60 76.25 682.01 73.00 679.00
C 75.85 685.84 78.39 693.07 81.00 700.00 Z"/>
</g>
<g fill="None" fill-opacity="0.0" stroke="#FF0604" stroke-opacity="1.00" stroke-width="0.3"><path d="
M 770.00 733.00 
C 770.00 737.66 769.91 742.34 770.00 747.00
C 770.50 771.81 788.35 790.55 813.00 791.00 C 837.65 791.45 857.50 774.93 858.00 750.00
C 858.09 745.68 858.09 741.32 858.00 737.00
C 857.52 713.01 840.97 694.04 816.00 691.00 C 791.03 687.96 770.00 706.99 770.00 733.00 Z"/>
</g>
<g fill="None" fill-opacity="0.0" stroke="#1F6BC2" stroke-opacity="0.42" stroke-width="0.3"><path d="
M 86.00 711.00 
C 86.68 708.40 84.47 703.37 82.00 701.00
C 83.53 704.10 84.78 707.77 86.00 711.00 Z"/>
</g>
<g fill="None" fill-opacity="0.0" stroke="#3B75CA" stroke-opacity="0.33" stroke-width="0.3"><path d="
M 136.00 793.00 
C 132.43 783.53 123.18 775.56 118.30 766.70 C 113.43 757.83 107.52 748.42 101.92 740.08 C 96.33 731.73 94.12 718.82 87.00 712.00
C 93.99 726.22 101.50 740.95 109.25 754.75 C 116.99 768.56 127.93 779.76 136.00 793.00 Z"/>
</g>
<g fill="None" fill-opacity="0.0" stroke="#FF9290" stroke-opacity="1.00" stroke-width="0.3"><path d="
M 707.00 747.00 
C 707.00 741.03 706.68 734.96 707.00 729.00
C 706.07 734.70 706.45 741.29 707.00 747.00 Z"/>
</g>
<g fill="None" fill-opacity="0.0" stroke="#FFAFAF" stroke-opacity="1.00" stroke-width="0.3"><path d="
M 770.00 747.00 
C 769.91 742.34 770.00 737.66 770.00 733.00
C 769.58 737.38 769.46 742.53 770.00 747.00 Z"/>
</g>
<g fill="None" fill-opacity="0.0" stroke="#FF8D8D" stroke-opacity="1.00" stroke-width="0.3"><path d="
M 858.00 750.00 
C 858.50 745.86 858.51 741.20 858.00 737.00
C 858.09 741.32 858.09 745.68 858.00 750.00 Z"/>
</g>
<g fill="None" fill-opacity="0.0" stroke="#FFB1B1" stroke-opacity="1.00" stroke-width="0.3"><path d="
M 930.00 799.00 
C 930.81 790.58 930.82 780.49 930.00 772.00
C 930.00 781.00 930.00 790.00 930.00 799.00 Z"/>
</g>
<g fill="None" fill-opacity="0.0" stroke="#3671C8" stroke-opacity="0.34" stroke-width="0.3"><path d="
M 137.00 795.00 
C 140.11 799.03 144.13 802.97 147.00 807.00
C 145.33 802.58 139.27 796.67 137.00 795.00 Z"/>
</g>
<g fill="None" fill-opacity="0.0" stroke="#3370CB" stroke-opacity="0.33" stroke-width="0.3"><path d="
M 148.00 809.00 
C 152.48 815.51 158.44 821.44 164.00 827.00
C 158.98 821.24 152.87 812.59 148.00 809.00 Z"/>
</g>
<g fill="None" fill-opacity="0.0" stroke="#1D66BE" stroke-opacity="0.62" stroke-width="0.3"><path d="
M 168.00 832.00 
C 170.42 834.42 173.63 836.63 176.00 839.00
C 172.41 834.80 167.62 831.15 164.00 827.00
C 165.38 828.38 166.68 830.46 168.00 832.00 Z"/>
</g>
<g fill="None" fill-opacity="0.0" stroke="#FF8786" stroke-opacity="1.00" stroke-width="0.3"><path d="
M 813.00 829.00 
C 807.37 829.22 801.63 829.11 796.00 829.00
C 801.37 829.65 807.55 829.78 813.00 829.00 Z"/>
</g>
<g fill="None" fill-opacity="0.0" stroke="#6492DE" stroke-opacity="0.08" stroke-width="0.3"><path d="
M 190.00 854.00 
C 188.25 852.23 186.71 849.71 185.00 848.00
C 181.80 845.26 178.78 842.25 176.00 839.00
C 173.63 836.63 170.42 834.42 168.00 832.00
C 174.58 839.69 182.29 847.34 190.00 854.00 Z"/>
</g>
<g fill="None" fill-opacity="0.0" stroke="#3783D9" stroke-opacity="0.40" stroke-width="0.3"><path d="
M 190.00 854.00 
C 204.96 866.92 221.34 879.04 236.00 892.00
C 230.70 883.12 217.20 877.76 209.75 870.25 C 202.30 862.74 193.25 855.05 185.00 848.00
C 186.71 849.71 188.25 852.23 190.00 854.00 Z"/>
</g>
<g fill="None" fill-opacity="0.0" stroke="#FF7E7C" stroke-opacity="1.00" stroke-width="0.3"><path d="
M 819.00 883.00 
C 814.43 883.25 809.57 883.25 805.00 883.00
C 809.54 883.74 814.40 883.75 819.00 883.00 Z"/>
</g>
<g fill="None" fill-opacity="0.0" stroke="#4589DC" stroke-opacity="0.34" stroke-width="0.3"><path d="
M 237.00 893.00 
C 260.36 909.47 284.54 923.47 310.00 936.00
C 304.14 929.90 291.40 926.45 284.23 921.77 C 277.05 917.09 266.89 910.96 259.75 907.25 C 252.60 903.55 243.62 892.60 237.00 893.00 Z"/>
</g>
<g fill="None" fill-opacity="0.0" stroke="#2E7DD9" stroke-opacity="0.39" stroke-width="0.3"><path d="
M 311.00 937.00 
C 319.10 940.06 326.86 944.11 335.00 947.00
C 329.44 944.28 316.57 935.55 311.00 937.00 Z"/>
</g>
<g fill="None" fill-opacity="0.0" stroke="#2F7CD9" stroke-opacity="0.39" stroke-width="0.3"><path d="
M 341.00 950.00 
C 346.32 952.69 353.25 954.46 359.00 956.00
C 353.66 953.98 345.46 951.65 341.00 950.00 Z"/>
</g>
<g fill="None" fill-opacity="0.0" stroke="#2D79D1" stroke-opacity="0.43" stroke-width="0.3"><path d="
M 646.00 962.00 
C 649.82 961.29 655.00 960.18 658.32 958.32 C 661.64 956.46 667.32 957.15 670.00 955.00
C 669.91 954.32 670.03 953.31 670.00 953.00
C 667.28 952.31 661.23 957.74 657.68 957.68 C 654.13 957.62 649.11 961.15 646.00 962.00 Z"/>
</g>
<g fill="None" fill-opacity="0.0" stroke="#287AD4" stroke-opacity="0.43" stroke-width="0.3"><path d="
M 378.00 962.00 
C 374.36 960.89 369.95 959.18 366.00 958.00
C 369.77 959.53 373.70 961.16 378.00 962.00 Z"/>
</g>
<g fill="None" fill-opacity="0.0" stroke="#307DD3" stroke-opacity="0.43" stroke-width="0.3"><path d="
M 386.00 965.00 
C 388.97 966.14 392.87 966.48 396.00 967.00
C 392.88 964.47 388.56 965.71 386.00 965.00 Z"/>
</g>
<g fill="None" fill-opacity="0.0" stroke="#2E7CD5" stroke-opacity="0.41" stroke-width="0.3"><path d="
M 615.00 970.00 
C 622.58 969.81 631.39 966.69 638.00 964.00
C 630.65 965.96 621.48 966.46 615.00 970.00 Z"/>
</g>
<g fill="None" fill-opacity="0.0" stroke="#307CD1" stroke-opacity="0.44" stroke-width="0.3"><path d="
M 409.00 970.00 
C 406.42 967.97 400.53 967.08 397.00 967.00
C 400.55 968.95 404.91 968.93 409.00 970.00 Z"/>
</g>
<g fill="None" fill-opacity="0.0" stroke="#2A7AD8" stroke-opacity="0.42" stroke-width="0.3"><path d="
M 410.00 971.00 
C 412.69 971.48 415.28 971.94 418.00 972.00
C 415.22 970.47 412.85 970.02 410.00 971.00 Z"/>
</g>
<g fill="None" fill-opacity="0.0" stroke="#3A7ED4" stroke-opacity="0.42" stroke-width="0.3"><path d="
M 595.00 974.00 
C 601.14 973.41 608.84 972.82 614.00 970.00
C 607.47 970.15 600.90 972.86 595.00 974.00 Z"/>
</g>
<g fill="None" fill-opacity="0.0" stroke="#377ED1" stroke-opacity="0.43" stroke-width="0.3"><path d="
M 429.00 974.00 
C 425.97 973.43 422.72 971.75 419.00 972.00
C 422.02 973.30 425.35 973.72 429.00 974.00 Z"/>
</g>
<g fill="None" fill-opacity="0.0" stroke="#2B7CDA" stroke-opacity="0.43" stroke-width="0.3"><path d="
M 456.00 978.00 
C 453.93 976.47 451.69 977.32 449.00 977.00
C 450.99 977.42 453.29 978.26 456.00 978.00 Z"/>
</g>
<g fill="None" fill-opacity="0.0" stroke="#397ED7" stroke-opacity="0.42" stroke-width="0.3"><path d="
M 465.00 979.00 
C 462.86 978.71 459.85 978.00 457.00 978.00
C 459.11 979.56 462.17 978.96 465.00 979.00 Z"/>
</g>
<g fill="None" fill-opacity="0.0" stroke="#2479D4" stroke-opacity="0.48" stroke-width="0.3"><path d="
M 495.00 981.00 
C 490.33 980.36 484.33 980.42 479.00 980.00
C 483.74 980.91 489.53 981.00 495.00 981.00 Z"/>
</g>
<g fill="None" fill-opacity="0.0" stroke="#257AD3" stroke-opacity="0.47" stroke-width="0.3"><path d="
M 529.00 981.00 
C 534.43 980.60 540.17 980.93 545.00 980.00
C 539.59 980.43 533.82 980.10 529.00 981.00 Z"/>
</g>
<g fill="None" fill-opacity="0.0" stroke="#3A88E4" stroke-opacity="0.10" stroke-width="0.3"><path d="
M 524.00 982.00 
C 516.84 982.27 507.03 981.00 499.00 981.00
C 506.19 981.98 516.04 983.06 524.00 982.00 Z"/>
</g>
<g fill="#000000" fill-opacity="0.00" stroke="None">
<path d="
M 0.00 1024.00 
L 1024.00 1024.00
L 1024.00 0.00
L 0.00 0.00
L 0.00 1024.00
M 529.00 43.00 
C 530.33 43.00 531.67 43.00 533.00 43.00
C 537.34 43.00 542.77 42.10 547.00 43.00
C 547.51 43.11 548.55 43.75 549.00 44.00
C 552.13 44.67 556.32 44.46 559.00 45.00
C 572.85 46.22 588.19 49.68 601.00 51.00
C 604.14 51.32 606.91 51.45 610.00 52.00
C 610.35 52.06 610.77 52.72 611.00 53.00
C 611.98 53.38 614.23 53.77 615.00 54.00
C 616.72 54.25 618.92 54.84 620.00 55.00
C 623.61 55.53 627.56 55.79 631.00 57.00
C 638.40 59.60 645.62 62.56 653.00 64.00
C 657.78 64.94 662.34 66.54 667.00 68.00
C 667.35 68.11 667.76 68.74 668.00 69.00
C 671.13 70.30 674.73 70.98 678.00 72.00
C 678.35 72.11 678.76 72.74 679.00 73.00
C 685.81 75.84 693.05 78.38 700.00 81.00
C 700.35 81.13 700.75 81.74 701.00 82.00
C 704.09 83.52 707.75 84.77 711.00 86.00
C 711.35 86.13 711.75 86.74 712.00 87.00
C 726.20 93.99 740.89 101.56 754.70 109.31 C 768.50 117.05 779.78 127.94 793.00 136.00
C 794.31 136.49 793.97 136.21 795.00 137.00
C 799.06 140.13 803.01 144.16 807.00 147.00
C 808.24 147.47 808.02 147.32 809.00 148.00
C 815.55 152.51 821.48 158.48 827.00 164.00
C 828.44 165.44 830.50 166.72 832.00 168.00
C 839.75 174.62 847.39 182.34 854.00 190.00
C 868.30 204.16 878.95 221.24 892.00 236.00
C 892.32 236.19 892.79 236.70 893.00 237.00
C 909.49 260.40 923.45 284.52 936.00 310.00
C 936.26 310.25 936.87 310.65 937.00 311.00
C 940.05 319.09 944.10 326.83 947.00 335.00
C 947.94 337.64 948.88 338.78 950.00 341.00
C 952.68 346.31 954.45 353.21 956.00 359.00
C 956.64 361.38 957.29 363.62 958.00 366.00
C 959.55 369.80 961.15 373.66 962.00 378.00
C 962.51 380.63 963.96 383.29 965.00 386.00
C 966.13 388.95 966.47 392.82 967.00 396.00
C 967.08 396.49 967.00 397.00 967.00 397.00
C 968.95 400.57 968.93 404.89 970.00 409.00
C 970.21 409.26 970.94 409.65 971.00 410.00
C 971.48 412.67 971.93 415.24 972.00 418.00
C 972.01 418.50 972.00 419.00 972.00 419.00
C 973.32 422.02 973.72 425.35 974.00 429.00
C 974.44 434.78 976.24 442.51 977.00 449.00
C 977.42 451.02 978.25 453.33 978.00 456.00
C 977.95 456.50 978.00 457.00 978.00 457.00
C 979.54 459.07 978.96 462.25 979.00 465.00
C 979.06 469.20 979.64 474.40 980.00 479.00
C 980.93 483.80 981.00 489.54 981.00 495.00
C 981.00 496.33 981.00 497.67 981.00 499.00
C 981.99 506.27 983.07 516.04 982.00 524.00
C 981.78 525.61 981.14 527.16 981.00 529.00
C 980.60 534.43 980.92 540.23 980.00 545.00
C 978.67 561.79 975.62 578.28 974.00 595.00
C 973.37 601.56 972.15 608.21 970.00 614.00
C 969.65 615.48 969.06 616.30 969.00 618.00
C 975.09 640.46 969.56 665.26 971.00 689.00 C 972.44 712.74 970.32 739.08 971.00 763.00 C 971.68 786.92 970.64 813.39 971.00 837.00 C 971.36 860.61 970.72 888.41 971.00 911.00 C 971.28 933.59 972.89 957.16 960.23 974.23 C 947.57 991.30 936.99 999.52 915.98 1002.98 C 894.97 1006.43 865.17 1003.09 843.00 1004.00 C 820.83 1004.91 790.39 1003.56 769.00 1004.00 C 747.61 1004.44 719.24 1006.00 702.92 996.08 C 686.60 986.15 672.24 972.85 670.00 955.00
C 667.32 957.15 661.64 956.46 658.32 958.32 C 655.00 960.18 649.82 961.29 646.00 962.00
C 643.09 962.54 640.80 963.25 638.00 964.00
C 631.39 966.69 622.58 969.81 615.00 970.00
C 614.50 970.01 614.00 970.00 614.00 970.00
C 608.84 972.82 601.14 973.41 595.00 974.00
C 578.32 975.61 561.80 978.67 545.00 980.00
C 540.17 980.93 534.43 980.60 529.00 981.00
C 527.09 981.14 525.71 981.77 524.00 982.00
C 516.04 983.06 506.19 981.98 499.00 981.00
C 497.67 981.00 496.33 981.00 495.00 981.00
C 489.53 981.00 483.74 980.91 479.00 980.00
C 474.40 979.63 469.24 979.06 465.00 979.00
C 462.17 978.96 459.11 979.56 457.00 978.00
C 456.50 978.00 456.00 978.00 456.00 978.00
C 453.29 978.26 450.99 977.42 449.00 977.00
C 442.51 976.23 434.67 974.43 429.00 974.00
C 425.35 973.72 422.02 973.30 419.00 972.00
C 418.50 972.03 418.00 972.00 418.00 972.00
C 415.28 971.94 412.69 971.48 410.00 971.00
C 409.65 970.94 409.26 970.21 409.00 970.00
C 404.91 968.93 400.55 968.95 397.00 967.00
C 396.50 966.99 396.00 967.00 396.00 967.00
C 392.87 966.48 388.97 966.14 386.00 965.00
C 383.34 963.98 380.54 962.50 378.00 962.00
C 373.70 961.16 369.77 959.53 366.00 958.00
C 363.63 957.29 361.41 956.64 359.00 956.00
C 353.25 954.46 346.32 952.69 341.00 950.00
C 338.88 948.93 337.59 947.92 335.00 947.00
C 326.86 944.11 319.10 940.06 311.00 937.00
C 310.65 936.87 310.25 936.26 310.00 936.00
C 284.54 923.47 260.36 909.47 237.00 893.00
C 236.70 892.79 236.19 892.32 236.00 892.00
C 221.34 879.04 204.96 866.92 190.00 854.00
C 182.29 847.34 174.58 839.69 168.00 832.00
C 166.68 830.46 165.38 828.38 164.00 827.00
C 158.44 821.44 152.48 815.51 148.00 809.00
C 147.42 808.16 147.41 808.10 147.00 807.00
C 144.13 802.97 140.11 799.03 137.00 795.00
C 136.32 794.12 136.43 794.15 136.00 793.00
C 127.93 779.76 116.99 768.56 109.25 754.75 C 101.50 740.95 93.99 726.22 87.00 712.00
C 86.74 711.75 86.13 711.35 86.00 711.00
C 84.78 707.77 83.53 704.10 82.00 701.00
C 81.74 700.75 81.13 700.35 81.00 700.00
C 78.39 693.07 75.85 685.84 73.00 679.00
C 72.74 678.76 72.11 678.35 72.00 678.00
C 70.99 674.76 70.32 671.15 69.00 668.00
C 68.74 667.76 68.11 667.35 68.00 667.00
C 66.55 662.37 64.94 657.81 64.00 653.00
C 62.55 645.58 59.60 638.40 57.00 631.00
C 55.80 627.59 55.54 623.63 55.00 620.00
C 54.72 619.02 54.24 616.65 54.00 615.00
C 53.65 613.82 53.17 612.66 53.00 611.00
C 51.04 592.04 46.91 567.61 43.00 547.00
C 42.18 542.69 43.00 537.40 43.00 533.00
C 43.00 531.67 43.00 530.33 43.00 529.00
C 41.57 518.51 41.58 505.42 43.00 495.00
C 43.00 493.67 43.00 492.33 43.00 491.00
C 43.00 485.85 43.10 480.43 44.00 476.00
C 45.40 460.13 48.88 442.81 50.00 428.00
C 50.46 421.94 51.23 414.05 54.00 409.00
C 54.01 408.50 54.00 408.00 54.00 408.00
C 54.12 402.84 55.88 392.84 59.00 389.00
C 59.08 388.51 59.00 388.00 59.00 388.00
C 59.68 383.89 60.44 378.16 63.00 375.00
C 63.02 374.50 63.00 374.00 63.00 374.00
C 63.25 367.51 67.06 360.18 69.00 354.00
C 69.11 353.65 69.74 353.24 70.00 353.00
C 82.09 324.02 94.20 292.94 111.30 266.30 C 128.41 239.67 145.92 216.72 167.00 193.00
C 174.77 184.25 183.51 175.93 192.00 168.00
C 213.50 144.51 239.34 130.15 265.08 112.08 C 290.82 94.01 324.20 82.01 353.00 70.00
C 353.24 69.74 353.65 69.11 354.00 69.00
C 360.15 67.07 367.48 63.25 374.00 63.00
C 374.50 62.98 375.00 63.00 375.00 63.00
C 378.17 60.43 383.87 59.68 388.00 59.00
C 388.49 58.92 389.00 59.00 389.00 59.00
C 392.86 55.87 402.82 54.12 408.00 54.00
C 408.50 53.99 409.00 54.00 409.00 54.00
C 414.16 51.18 421.86 50.59 428.00 50.00
C 444.04 48.45 459.90 45.42 476.00 44.00
C 480.49 43.09 485.85 43.00 491.00 43.00
C 492.33 43.00 493.67 43.00 495.00 43.00
C 505.49 41.57 518.58 41.58 529.00 43.00 Z"/>
</g>
<g fill="#C8E1F9" fill-opacity="0.09" stroke="None">
<path d="
M 495.00 43.00 
C 506.33 43.00 517.67 43.00 529.00 43.00
C 518.58 41.58 505.49 41.57 495.00 43.00 Z"/>
</g>
<g fill="#356FC2" fill-opacity="0.45" stroke="None">
<path d="
M 476.00 44.00 
C 480.98 43.56 486.67 43.59 491.00 43.00
C 485.85 43.00 480.49 43.09 476.00 44.00 Z"/>
</g>
<g fill="#EE9126" fill-opacity="1.00" stroke="None">
<path d="
M 476.00 44.00 
C 459.90 45.42 444.04 48.45 428.00 50.00
C 422.10 51.14 415.53 53.85 409.00 54.00
C 409.00 54.00 408.50 53.99 408.00 54.00
C 402.89 56.79 395.02 58.01 389.00 59.00
C 389.00 59.00 388.49 58.92 388.00 59.00
C 385.33 61.17 378.67 62.86 375.00 63.00
C 375.00 63.00 374.50 62.98 374.00 63.00
C 370.34 65.97 357.89 69.96 354.00 69.00
C 353.65 69.11 353.24 69.74 353.00 70.00
C 346.05 77.51 330.77 77.16 321.93 82.93 C 313.08 88.69 300.85 91.94 291.77 97.77 C 282.69 103.60 272.21 108.24 263.30 114.30 C 254.40 120.37 245.55 125.61 236.92 131.92 C 228.29 138.23 220.15 145.20 211.75 151.75 C 203.35 158.31 196.15 166.04 188.00 173.00
C 182.68 177.55 177.50 182.73 173.00 188.00
C 166.07 196.11 158.70 202.85 152.25 211.25 C 145.79 219.64 138.50 227.58 132.25 236.25 C 125.99 244.91 120.34 254.37 114.25 263.25 C 108.15 272.12 104.03 282.07 98.08 291.08 C 92.13 300.09 89.14 312.40 83.23 321.23 C 77.32 330.06 77.57 346.00 70.00 353.00
C 69.74 353.24 69.11 353.65 69.00 354.00
C 69.98 357.93 65.94 370.38 63.00 374.00
C 63.00 374.00 63.02 374.50 63.00 375.00
C 62.86 378.65 61.15 385.34 59.00 388.00
C 59.00 388.00 59.08 388.51 59.00 389.00
C 58.02 394.98 56.77 402.92 54.00 408.00
C 54.00 408.00 54.01 408.50 54.00 409.00
C 53.85 415.49 51.10 422.14 50.00 428.00
C 48.88 442.81 45.40 460.13 44.00 476.00
C 43.56 480.98 43.59 486.67 43.00 491.00
C 43.00 492.33 43.00 493.67 43.00 495.00
C 43.00 506.33 43.00 517.67 43.00 529.00
C 43.00 530.33 43.00 531.67 43.00 533.00
C 43.54 536.94 42.67 543.49 43.00 547.00
C 46.91 567.61 51.04 592.04 53.00 611.00
C 53.27 612.06 53.78 613.48 54.00 615.00
C 54.24 616.65 54.72 619.02 55.00 620.00
C 55.88 623.14 56.42 628.64 57.00 631.00
C 59.60 638.40 62.55 645.58 64.00 653.00
C 65.33 657.35 69.05 662.77 68.00 667.00
C 68.11 667.35 68.74 667.76 69.00 668.00
C 71.50 670.32 72.62 675.49 72.00 678.00
C 72.11 678.35 72.74 678.76 73.00 679.00
C 76.25 682.01 81.88 696.60 81.00 700.00
C 81.13 700.35 81.74 700.75 82.00 701.00
C 84.47 703.37 86.68 708.40 86.00 711.00
C 86.13 711.35 86.74 711.75 87.00 712.00
C 94.12 718.82 96.33 731.73 101.92 740.08 C 107.52 748.42 113.43 757.83 118.30 766.70 C 123.18 775.56 132.43 783.53 136.00 793.00
C 136.43 794.15 136.32 794.12 137.00 795.00
C 139.27 796.67 145.33 802.58 147.00 807.00
C 147.41 808.10 147.42 808.16 148.00 809.00
C 152.87 812.59 158.98 821.24 164.00 827.00
C 167.62 831.15 172.41 834.80 176.00 839.00
C 178.78 842.25 181.80 845.26 185.00 848.00
C 193.25 855.05 202.30 862.74 209.75 870.25 C 217.20 877.76 230.70 883.12 236.00 892.00
C 236.19 892.32 236.70 892.79 237.00 893.00
C 243.62 892.60 252.60 903.55 259.75 907.25 C 266.89 910.96 277.05 917.09 284.23 921.77 C 291.40 926.45 304.14 929.90 310.00 936.00
C 310.25 936.26 310.65 936.87 311.00 937.00
C 316.57 935.55 329.44 944.28 335.00 947.00
C 337.59 947.92 338.88 948.93 341.00 950.00
C 345.46 951.65 353.66 953.98 359.00 956.00
C 361.41 956.64 363.63 957.29 366.00 958.00
C 369.95 959.18 374.36 960.89 378.00 962.00
C 380.54 962.50 383.34 963.98 386.00 965.00
C 388.56 965.71 392.88 964.47 396.00 967.00
C 396.00 967.00 396.50 966.99 397.00 967.00
C 400.53 967.08 406.42 967.97 409.00 970.00
C 409.26 970.21 409.65 970.94 410.00 971.00
C 412.85 970.02 415.22 970.47 418.00 972.00
C 418.00 972.00 418.50 972.03 419.00 972.00
C 422.72 971.75 425.97 973.43 429.00 974.00
C 434.67 974.43 442.51 976.23 449.00 977.00
C 451.69 977.32 453.93 976.47 456.00 978.00
C 456.00 978.00 456.50 978.00 457.00 978.00
C 459.85 978.00 462.86 978.71 465.00 979.00
C 469.24 979.06 474.40 979.63 479.00 980.00
C 484.33 980.42 490.33 980.36 495.00 981.00
C 496.33 981.00 497.67 981.00 499.00 981.00
C 507.03 981.00 516.84 982.27 524.00 982.00
C 525.71 981.77 527.09 981.14 529.00 981.00
C 533.82 980.10 539.59 980.43 545.00 980.00
C 561.80 978.67 578.32 975.61 595.00 974.00
C 600.90 972.86 607.47 970.15 614.00 970.00
C 614.00 970.00 614.50 970.01 615.00 970.00
C 621.48 966.46 630.65 965.96 638.00 964.00
C 640.80 963.25 643.09 962.54 646.00 962.00
C 649.11 961.15 654.13 957.62 657.68 957.68 C 661.23 957.74 667.28 952.31 670.00 953.00
C 665.09 903.56 670.28 853.12 669.00 803.00 C 667.72 752.88 669.00 701.26 669.00 651.00
C 654.99 651.03 641.01 650.96 627.00 651.00 C 612.99 651.04 599.03 650.92 585.00 651.00 C 570.97 651.08 557.06 650.83 543.00 651.00 C 528.94 651.17 514.02 650.64 500.00 651.00 C 485.98 651.36 471.86 650.19 458.00 651.00 C 444.14 651.81 429.62 649.19 416.00 651.00 C 402.38 652.81 386.04 647.10 373.00 651.00
C 368.03 652.84 363.86 661.81 359.25 665.25 C 354.63 668.69 349.08 674.92 345.00 679.00
C 330.09 696.45 311.93 711.63 296.00 728.00
C 295.85 697.04 296.20 665.95 296.00 635.00 C 295.80 604.05 296.38 571.80 296.00 541.00 C 295.62 510.21 296.81 477.28 296.00 447.00 C 295.19 416.72 297.78 382.06 296.00 353.00 C 294.22 323.94 301.15 299.61 331.00 294.00
C 359.76 288.85 391.05 294.36 421.00 293.00 C 450.95 291.64 482.84 292.99 513.00 293.00 C 543.16 293.01 574.96 291.60 605.00 293.00 C 635.04 294.40 667.16 288.83 696.00 294.00
C 704.50 294.58 702.25 295.17 710.75 299.25 C 719.24 303.34 726.90 313.97 729.32 322.68 C 731.74 331.38 730.63 331.87 731.00 340.00 C 731.37 348.13 730.82 353.53 731.00 361.00 C 731.18 368.47 730.93 373.85 731.00 381.00 C 731.07 388.15 730.97 394.94 731.00 402.00 C 731.03 409.06 731.00 415.99 731.00 423.00 C 731.00 430.01 731.02 437.04 731.00 444.00 C 730.98 450.96 731.06 458.12 731.00 465.00 C 730.94 471.88 731.14 478.18 731.00 485.00 C 730.86 491.82 731.30 499.25 731.00 506.00 C 730.70 512.75 731.67 520.49 731.00 527.00 C 730.33 533.51 732.48 542.05 731.00 548.00 C 729.52 553.95 734.29 564.31 731.00 569.00
C 753.81 566.79 779.30 570.13 802.00 569.00 C 824.70 567.87 852.15 569.83 874.00 569.00 C 895.85 568.17 920.04 567.85 937.08 577.92 C 954.13 587.99 964.20 600.28 969.00 618.00
C 969.06 616.30 969.65 615.48 970.00 614.00
C 971.44 607.87 972.89 600.77 974.00 595.00
C 975.62 578.28 978.67 561.79 980.00 545.00
C 980.43 539.59 980.11 533.76 981.00 529.00
C 981.14 527.16 981.78 525.61 982.00 524.00
C 982.27 516.76 981.00 507.04 981.00 499.00
C 981.00 497.67 981.00 496.33 981.00 495.00
C 980.35 490.26 980.42 484.33 980.00 479.00
C 979.64 474.40 979.06 469.20 979.00 465.00
C 978.71 462.81 978.00 459.84 978.00 457.00
C 978.00 457.00 977.95 456.50 978.00 456.00
C 976.50 453.98 977.31 451.61 977.00 449.00
C 976.24 442.51 974.44 434.78 974.00 429.00
C 973.43 425.93 971.74 422.75 972.00 419.00
C 972.00 419.00 972.01 418.50 972.00 418.00
C 970.46 415.18 970.02 412.84 971.00 410.00
C 970.94 409.65 970.21 409.26 970.00 409.00
C 967.97 406.42 967.08 400.53 967.00 397.00
C 967.00 397.00 967.08 396.49 967.00 396.00
C 964.48 392.89 965.69 388.48 965.00 386.00
C 963.96 383.29 962.51 380.63 962.00 378.00
C 960.87 374.31 959.20 369.99 958.00 366.00
C 957.29 363.62 956.64 361.38 956.00 359.00
C 953.97 353.62 951.64 345.41 950.00 341.00
C 948.88 338.78 947.94 337.64 947.00 335.00
C 944.25 329.38 935.57 316.54 937.00 311.00
C 936.87 310.65 936.26 310.25 936.00 310.00
C 929.91 304.17 926.82 291.95 922.23 284.77 C 917.64 277.59 911.28 267.61 907.70 260.30 C 904.11 253.00 892.59 243.72 893.00 237.00
C 892.79 236.70 892.32 236.19 892.00 236.00
C 883.11 230.70 878.18 217.80 870.75 210.25 C 863.32 202.69 855.06 193.26 848.00 185.00
C 845.22 181.75 842.20 178.74 839.00 176.00
C 834.75 172.37 831.10 167.57 827.00 164.00
C 821.19 158.93 812.54 152.81 809.00 148.00
C 808.02 147.32 808.24 147.47 807.00 147.00
C 802.53 145.32 796.63 139.21 795.00 137.00
C 793.97 136.21 794.31 136.49 793.00 136.00
C 783.59 132.46 776.11 123.59 767.30 118.70 C 758.49 113.80 749.12 107.93 740.75 102.25 C 732.39 96.57 718.87 94.17 712.00 87.00
C 711.75 86.74 711.35 86.13 711.00 86.00
C 708.37 86.68 703.32 84.42 701.00 82.00
C 700.75 81.74 700.35 81.13 700.00 81.00
C 696.55 81.90 681.97 76.21 679.00 73.00
C 678.76 72.74 678.35 72.11 678.00 72.00
C 675.46 72.63 670.29 71.48 668.00 69.00
C 667.76 68.74 667.35 68.11 667.00 68.00
C 662.76 69.05 657.28 65.31 653.00 64.00
C 645.62 62.56 638.40 59.60 631.00 57.00
C 628.60 56.41 623.11 55.87 620.00 55.00
C 618.92 54.84 616.72 54.25 615.00 54.00
C 613.19 53.74 612.22 54.46 611.00 53.00
C 610.77 52.72 610.35 52.06 610.00 52.00
C 606.69 53.14 604.26 51.72 601.00 51.00
C 588.19 49.68 572.85 46.22 559.00 45.00
C 555.45 44.69 551.88 45.59 549.00 44.00
C 548.55 43.75 547.51 43.11 547.00 43.00
C 542.85 43.03 537.26 43.58 533.00 43.00
C 531.67 43.00 530.33 43.00 529.00 43.00
C 517.67 43.00 506.33 43.00 495.00 43.00
C 493.67 43.00 492.33 43.00 491.00 43.00
C 486.67 43.59 480.98 43.56 476.00 44.00 Z"/>
</g>
<g fill="#2368BE" fill-opacity="0.47" stroke="None">
<path d="
M 547.00 43.00 
C 542.77 42.10 537.34 43.00 533.00 43.00
C 537.26 43.58 542.85 43.03 547.00 43.00 Z"/>
</g>
<g fill="#356ABB" fill-opacity="0.45" stroke="None">
<path d="
M 559.00 45.00 
C 556.32 44.46 552.13 44.67 549.00 44.00
C 551.88 45.59 555.45 44.69 559.00 45.00 Z"/>
</g>
<g fill="#3D70C5" fill-opacity="0.41" stroke="None">
<path d="
M 409.00 54.00 
C 415.53 53.85 422.10 51.14 428.00 50.00
C 421.86 50.59 414.16 51.18 409.00 54.00 Z"/>
</g>
<g fill="#2B67C4" fill-opacity="0.43" stroke="None">
<path d="
M 610.00 52.00 
C 606.91 51.45 604.14 51.32 601.00 51.00
C 604.26 51.72 606.69 53.14 610.00 52.00 Z"/>
</g>
<g fill="#2067C3" fill-opacity="0.39" stroke="None">
<path d="
M 615.00 54.00 
C 614.23 53.77 611.98 53.38 611.00 53.00
C 612.22 54.46 613.19 53.74 615.00 54.00 Z"/>
</g>
<g fill="#3B74CB" fill-opacity="0.38" stroke="None">
<path d="
M 389.00 59.00 
C 395.02 58.01 402.89 56.79 408.00 54.00
C 402.82 54.12 392.86 55.87 389.00 59.00 Z"/>
</g>
<g fill="#376FC8" fill-opacity="0.38" stroke="None">
<path d="
M 631.00 57.00 
C 627.56 55.79 623.61 55.53 620.00 55.00
C 623.11 55.87 628.60 56.41 631.00 57.00 Z"/>
</g>
<g fill="#3670C7" fill-opacity="0.40" stroke="None">
<path d="
M 375.00 63.00 
C 378.67 62.86 385.33 61.17 388.00 59.00
C 383.87 59.68 378.17 60.43 375.00 63.00 Z"/>
</g>
<g fill="#3571CD" fill-opacity="0.35" stroke="None">
<path d="
M 354.00 69.00 
C 357.89 69.96 370.34 65.97 374.00 63.00
C 367.48 63.25 360.15 67.07 354.00 69.00 Z"/>
</g>
<g fill="#4475CD" fill-opacity="0.33" stroke="None">
<path d="
M 667.00 68.00 
C 662.34 66.54 657.78 64.94 653.00 64.00
C 657.28 65.31 662.76 69.05 667.00 68.00 Z"/>
</g>
<g fill="#316BBC" fill-opacity="0.44" stroke="None">
<path d="
M 678.00 72.00 
C 674.73 70.98 671.13 70.30 668.00 69.00
C 670.29 71.48 675.46 72.63 678.00 72.00 Z"/>
</g>
<g fill="#3C76C9" fill-opacity="0.37" stroke="None">
<path d="
M 192.00 168.00 
C 190.63 169.50 189.39 171.61 188.00 173.00
C 196.15 166.04 203.35 158.31 211.75 151.75 C 220.15 145.20 228.29 138.23 236.92 131.92 C 245.55 125.61 254.40 120.37 263.30 114.30 C 272.21 108.24 282.69 103.60 291.77 97.77 C 300.85 91.94 313.08 88.69 321.93 82.93 C 330.77 77.16 346.05 77.51 353.00 70.00
C 324.20 82.01 290.82 94.01 265.08 112.08 C 239.34 130.15 213.50 144.51 192.00 168.00 Z"/>
</g>
<g fill="#2F6EC8" fill-opacity="0.37" stroke="None">
<path d="
M 700.00 81.00 
C 693.05 78.38 685.81 75.84 679.00 73.00
C 681.97 76.21 696.55 81.90 700.00 81.00 Z"/>
</g>
<g fill="#1F6BC2" fill-opacity="0.42" stroke="None">
<path d="
M 711.00 86.00 
C 707.75 84.77 704.09 83.52 701.00 82.00
C 703.32 84.42 708.37 86.68 711.00 86.00 Z"/>
</g>
<g fill="#3C75CB" fill-opacity="0.33" stroke="None">
<path d="
M 793.00 136.00 
C 779.78 127.94 768.50 117.05 754.70 109.31 C 740.89 101.56 726.20 93.99 712.00 87.00
C 718.87 94.17 732.39 96.57 740.75 102.25 C 749.12 107.93 758.49 113.80 767.30 118.70 C 776.11 123.59 783.59 132.46 793.00 136.00 Z"/>
</g>
<g fill="#3671C8" fill-opacity="0.34" stroke="None">
<path d="
M 807.00 147.00 
C 803.01 144.16 799.06 140.13 795.00 137.00
C 796.63 139.21 802.53 145.32 807.00 147.00 Z"/>
</g>
<g fill="#3370CB" fill-opacity="0.33" stroke="None">
<path d="
M 827.00 164.00 
C 821.48 158.48 815.55 152.51 809.00 148.00
C 812.54 152.81 821.19 158.93 827.00 164.00 Z"/>
</g>
<g fill="#1D66BE" fill-opacity="0.62" stroke="None">
<path d="
M 839.00 176.00 
C 836.58 173.58 834.37 170.37 832.00 168.00
C 830.50 166.72 828.44 165.44 827.00 164.00
C 831.10 167.57 834.75 172.37 839.00 176.00 Z"/>
</g>
<g fill="#3A6FCC" fill-opacity="0.14" stroke="None">
<path d="
M 167.00 193.00 
C 168.80 191.27 171.29 189.71 173.00 188.00
C 177.50 182.73 182.68 177.55 188.00 173.00
C 189.39 171.61 190.63 169.50 192.00 168.00
C 183.51 175.93 174.77 184.25 167.00 193.00 Z"/>
</g>
<g fill="#6391DE" fill-opacity="0.08" stroke="None">
<path d="
M 839.00 176.00 
C 842.20 178.74 845.22 181.75 848.00 185.00
C 849.76 186.76 852.28 188.30 854.00 190.00
C 847.39 182.34 839.75 174.62 832.00 168.00
C 834.37 170.37 836.58 173.58 839.00 176.00 Z"/>
</g>
<g fill="#3783D9" fill-opacity="0.40" stroke="None">
<path d="
M 892.00 236.00 
C 878.95 221.24 868.30 204.16 854.00 190.00
C 852.28 188.30 849.76 186.76 848.00 185.00
C 855.06 193.26 863.32 202.69 870.75 210.25 C 878.18 217.80 883.11 230.70 892.00 236.00 Z"/>
</g>
<g fill="#3B75C9" fill-opacity="0.37" stroke="None">
<path d="
M 167.00 193.00 
C 145.92 216.72 128.41 239.67 111.30 266.30 C 94.20 292.94 82.09 324.02 70.00 353.00
C 77.57 346.00 77.32 330.06 83.23 321.23 C 89.14 312.40 92.13 300.09 98.08 291.08 C 104.03 282.07 108.15 272.12 114.25 263.25 C 120.34 254.37 125.99 244.91 132.25 236.25 C 138.50 227.58 145.79 219.64 152.25 211.25 C 158.70 202.85 166.07 196.11 173.00 188.00
C 171.29 189.71 168.80 191.27 167.00 193.00 Z"/>
</g>
<g fill="#4589DC" fill-opacity="0.34" stroke="None">
<path d="
M 936.00 310.00 
C 923.45 284.52 909.49 260.40 893.00 237.00
C 892.59 243.72 904.11 253.00 907.70 260.30 C 911.28 267.61 917.64 277.59 922.23 284.77 C 926.82 291.95 929.91 304.17 936.00 310.00 Z"/>
</g>
<g fill="#DCE6F2" fill-opacity="1.00" stroke="None">
<path d="
M 331.00 294.00 
C 371.21 291.26 411.63 294.73 452.00 294.00 C 492.37 293.27 533.57 293.24 574.00 294.00 C 614.43 294.76 655.66 291.25 696.00 294.00
C 667.16 288.83 635.04 294.40 605.00 293.00 C 574.96 291.60 543.16 293.01 513.00 293.00 C 482.84 292.99 450.95 291.64 421.00 293.00 C 391.05 294.36 359.76 288.85 331.00 294.00 Z"/>
</g>
<g fill="#FEFEFE" fill-opacity="1.00" stroke="None">
<path d="
M 345.00 679.00 
C 348.87 674.47 353.99 668.29 358.75 664.75 C 363.51 661.21 367.43 652.67 373.00 651.00
C 386.04 647.10 402.38 652.81 416.00 651.00 C 429.62 649.19 444.14 651.81 458.00 651.00 C 471.86 650.19 485.98 651.36 500.00 651.00 C 514.02 650.64 528.94 651.17 543.00 651.00 C 557.06 650.83 570.97 651.08 585.00 651.00 C 599.03 650.92 612.99 651.04 627.00 651.00 C 641.01 650.96 654.99 651.03 669.00 651.00
C 669.00 631.15 669.55 608.08 683.30 593.30 C 697.06 578.53 712.10 570.83 731.00 569.00
C 734.29 564.31 729.52 553.95 731.00 548.00 C 732.48 542.05 730.33 533.51 731.00 527.00 C 731.67 520.49 730.70 512.75 731.00 506.00 C 731.30 499.25 730.86 491.82 731.00 485.00 C 731.14 478.18 730.94 471.88 731.00 465.00 C 731.06 458.12 730.98 450.96 731.00 444.00 C 731.02 437.04 731.00 430.01 731.00 423.00 C 731.00 415.99 731.03 409.06 731.00 402.00 C 730.97 394.94 731.07 388.15 731.00 381.00 C 730.93 373.85 731.18 368.47 731.00 361.00 C 730.82 353.53 731.37 348.13 731.00 340.00 C 730.63 331.87 731.74 331.38 729.32 322.68 C 726.90 313.97 719.24 303.34 710.75 299.25 C 702.25 295.17 704.50 294.58 696.00 294.00
C 655.66 291.25 614.43 294.76 574.00 294.00 C 533.57 293.24 492.37 293.27 452.00 294.00 C 411.63 294.73 371.21 291.26 331.00 294.00
C 301.15 299.61 294.22 323.94 296.00 353.00 C 297.78 382.06 295.19 416.72 296.00 447.00 C 296.81 477.28 295.62 510.21 296.00 541.00 C 296.38 571.80 295.80 604.05 296.00 635.00 C 296.20 665.95 295.85 697.04 296.00 728.00
C 311.93 711.63 330.09 696.45 345.00 679.00
M 645.00 386.00 
C 635.91 394.96 629.17 402.95 618.75 410.75 C 608.34 418.56 604.00 432.23 589.00 432.00 C 574.00 431.77 554.09 432.10 538.00 432.00 C 521.91 431.90 503.58 432.05 487.00 432.00 C 470.42 431.95 452.78 432.03 436.00 432.00 C 419.22 431.97 401.83 432.02 385.00 432.00
C 385.00 416.67 385.00 401.33 385.00 386.00
C 471.67 386.00 558.33 386.00 645.00 386.00
M 574.00 452.00 
C 567.56 459.55 561.22 463.69 554.25 471.25 C 547.28 478.81 540.89 480.82 533.75 489.75 C 526.62 498.68 513.99 497.46 502.00 497.00 C 490.01 496.54 475.53 497.21 463.00 497.00 C 450.47 496.79 436.75 497.11 424.00 497.00 C 411.25 496.89 397.82 497.08 385.00 497.00
C 385.00 482.00 385.00 467.00 385.00 452.00
C 448.00 452.00 511.00 452.00 574.00 452.00
M 504.00 518.00 
C 492.63 526.04 486.70 534.31 475.75 543.75 C 464.80 553.19 456.78 565.40 440.00 563.00 C 423.22 560.60 402.17 564.80 385.00 563.00
C 385.00 547.67 385.00 532.33 385.00 517.00
C 424.50 517.67 465.32 515.67 504.00 518.00 Z"/>
</g>
<g fill="#2E7DD9" fill-opacity="0.39" stroke="None">
<path d="
M 947.00 335.00 
C 944.10 326.83 940.05 319.09 937.00 311.00
C 935.57 316.54 944.25 329.38 947.00 335.00 Z"/>
</g>
<g fill="#2F7CD9" fill-opacity="0.39" stroke="None">
<path d="
M 956.00 359.00 
C 954.45 353.21 952.68 346.31 950.00 341.00
C 951.64 345.41 953.97 353.62 956.00 359.00 Z"/>
</g>
<g fill="#3671CD" fill-opacity="0.35" stroke="None">
<path d="
M 63.00 374.00 
C 65.94 370.38 69.98 357.93 69.00 354.00
C 67.06 360.18 63.25 367.51 63.00 374.00 Z"/>
</g>
<g fill="#287AD4" fill-opacity="0.43" stroke="None">
<path d="
M 962.00 378.00 
C 961.15 373.66 959.55 369.80 958.00 366.00
C 959.20 369.99 960.87 374.31 962.00 378.00 Z"/>
</g>
<g fill="#356EC6" fill-opacity="0.40" stroke="None">
<path d="
M 59.00 388.00 
C 61.15 385.34 62.86 378.65 63.00 375.00
C 60.44 378.16 59.68 383.89 59.00 388.00 Z"/>
</g>
<g fill="#B7B7B7" fill-opacity="1.00" stroke="None">
<path d="
M 645.00 386.00 
C 558.33 386.00 471.67 386.00 385.00 386.00
C 385.00 401.33 385.00 416.67 385.00 432.00
C 401.83 432.02 419.22 431.97 436.00 432.00 C 452.78 432.03 470.42 431.95 487.00 432.00 C 503.58 432.05 521.91 431.90 538.00 432.00 C 554.09 432.10 574.00 431.77 589.00 432.00 C 604.00 432.23 608.34 418.56 618.75 410.75 C 629.17 402.95 635.91 394.96 645.00 386.00 Z"/>
</g>
<g fill="#307DD3" fill-opacity="0.43" stroke="None">
<path d="
M 967.00 396.00 
C 966.47 392.82 966.13 388.95 965.00 386.00
C 965.69 388.48 964.48 392.89 967.00 396.00 Z"/>
</g>
<g fill="#3B74CB" fill-opacity="0.38" stroke="None">
<path d="
M 54.00 408.00 
C 56.77 402.92 58.02 394.98 59.00 389.00
C 55.88 392.84 54.12 402.84 54.00 408.00 Z"/>
</g>
<g fill="#2E7CD2" fill-opacity="0.44" stroke="None">
<path d="
M 970.00 409.00 
C 968.93 404.89 968.95 400.57 967.00 397.00
C 967.08 400.53 967.97 406.42 970.00 409.00 Z"/>
</g>
<g fill="#3D70C5" fill-opacity="0.41" stroke="None">
<path d="
M 50.00 428.00 
C 51.10 422.14 53.85 415.49 54.00 409.00
C 51.23 414.05 50.46 421.94 50.00 428.00 Z"/>
</g>
<g fill="#2A7AD8" fill-opacity="0.42" stroke="None">
<path d="
M 972.00 418.00 
C 971.93 415.24 971.48 412.67 971.00 410.00
C 970.02 412.84 970.46 415.18 972.00 418.00 Z"/>
</g>
<g fill="#377ED1" fill-opacity="0.43" stroke="None">
<path d="
M 974.00 429.00 
C 973.72 425.35 973.32 422.02 972.00 419.00
C 971.74 422.75 973.43 425.93 974.00 429.00 Z"/>
</g>
<g fill="#2B7CDA" fill-opacity="0.43" stroke="None">
<path d="
M 978.00 456.00 
C 978.25 453.33 977.42 451.02 977.00 449.00
C 977.31 451.61 976.50 453.98 978.00 456.00 Z"/>
</g>
<g fill="#B7B7B7" fill-opacity="1.00" stroke="None">
<path d="
M 574.00 452.00 
C 511.00 452.00 448.00 452.00 385.00 452.00
C 385.00 467.00 385.00 482.00 385.00 497.00
C 397.82 497.08 411.25 496.89 424.00 497.00 C 436.75 497.11 450.47 496.79 463.00 497.00 C 475.53 497.21 490.01 496.54 502.00 497.00 C 513.99 497.46 526.62 498.68 533.75 489.75 C 540.89 480.82 547.28 478.81 554.25 471.25 C 561.22 463.69 567.56 459.55 574.00 452.00 Z"/>
</g>
<g fill="#387DD7" fill-opacity="0.42" stroke="None">
<path d="
M 979.00 465.00 
C 978.96 462.25 979.54 459.07 978.00 457.00
C 978.00 459.84 978.71 462.81 979.00 465.00 Z"/>
</g>
<g fill="#346FC2" fill-opacity="0.45" stroke="None">
<path d="
M 43.00 491.00 
C 43.59 486.67 43.56 480.98 44.00 476.00
C 43.10 480.43 43.00 485.85 43.00 491.00 Z"/>
</g>
<g fill="#2379D4" fill-opacity="0.48" stroke="None">
<path d="
M 981.00 495.00 
C 981.00 489.54 980.93 483.80 980.00 479.00
C 980.42 484.33 980.35 490.26 981.00 495.00 Z"/>
</g>
<g fill="#2D6EC8" fill-opacity="0.21" stroke="None">
<path d="
M 43.00 529.00 
C 43.00 517.67 43.00 506.33 43.00 495.00
C 41.58 505.42 41.57 518.51 43.00 529.00 Z"/>
</g>
<g fill="#3D89E4" fill-opacity="0.10" stroke="None">
<path d="
M 982.00 524.00 
C 983.07 516.04 981.99 506.27 981.00 499.00
C 981.00 507.04 982.27 516.76 982.00 524.00 Z"/>
</g>
<g fill="#B7B7B7" fill-opacity="1.00" stroke="None">
<path d="
M 504.00 518.00 
C 465.32 515.67 424.50 517.67 385.00 517.00
C 385.00 532.33 385.00 547.67 385.00 563.00
C 402.17 564.80 423.22 560.60 440.00 563.00 C 456.78 565.40 464.80 553.19 475.75 543.75 C 486.70 534.31 492.63 526.04 504.00 518.00 Z"/>
</g>
<g fill="#2A7AD1" fill-opacity="0.47" stroke="None">
<path d="
M 980.00 545.00 
C 980.92 540.23 980.60 534.43 981.00 529.00
C 980.11 533.76 980.43 539.59 980.00 545.00 Z"/>
</g>
<g fill="#2368BE" fill-opacity="0.47" stroke="None">
<path d="
M 43.00 547.00 
C 42.67 543.49 43.54 536.94 43.00 533.00
C 43.00 537.40 42.18 542.69 43.00 547.00 Z"/>
</g>
<g fill="#FF0402" fill-opacity="1.00" stroke="None">
<path d="
M 669.00 651.00 
C 669.00 701.26 667.72 752.88 669.00 803.00 C 670.28 853.12 665.09 903.56 670.00 953.00
C 670.03 953.31 669.91 954.32 670.00 955.00
C 672.24 972.85 686.60 986.15 702.92 996.08 C 719.24 1006.00 747.61 1004.44 769.00 1004.00 C 790.39 1003.56 820.83 1004.91 843.00 1004.00 C 865.17 1003.09 894.97 1006.43 915.98 1002.98 C 936.99 999.52 947.57 991.30 960.23 974.23 C 972.89 957.16 971.28 933.59 971.00 911.00 C 970.72 888.41 971.36 860.61 971.00 837.00 C 970.64 813.39 971.68 786.92 971.00 763.00 C 970.32 739.08 972.44 712.74 971.00 689.00 C 969.56 665.26 975.09 640.46 969.00 618.00
C 964.20 600.28 954.13 587.99 937.08 577.92 C 920.04 567.85 895.85 568.17 874.00 569.00 C 852.15 569.83 824.70 567.87 802.00 569.00 C 779.30 570.13 753.81 566.79 731.00 569.00
C 712.10 570.83 697.06 578.53 683.30 593.30 C 669.55 608.08 669.00 631.15 669.00 651.00
M 930.00 772.00 
C 930.82 780.49 930.81 790.58 930.00 799.00
C 930.00 853.90 902.08 907.86 846.93 921.93 C 791.77 935.99 723.83 921.93 713.00 859.00
C 733.68 857.41 754.06 854.61 775.00 854.00
C 776.51 868.96 789.38 882.94 805.00 883.00
C 809.57 883.25 814.43 883.25 819.00 883.00
C 855.51 881.02 862.88 835.55 864.00 807.00
C 849.72 819.74 832.02 827.79 813.00 829.00
C 807.55 829.78 801.37 829.65 796.00 829.00
C 752.95 828.14 707.00 792.70 707.00 747.00
C 706.45 741.29 706.07 734.70 707.00 729.00
C 709.05 691.29 738.41 663.33 774.01 653.01 C 809.60 642.69 857.03 645.67 887.70 670.30 C 918.36 694.94 930.00 733.69 930.00 772.00 Z"/>
</g>
<g fill="#3A7FD4" fill-opacity="0.42" stroke="None">
<path d="
M 970.00 614.00 
C 972.15 608.21 973.37 601.56 974.00 595.00
C 972.89 600.77 971.44 607.87 970.00 614.00 Z"/>
</g>
<g fill="#2067C3" fill-opacity="0.39" stroke="None">
<path d="
M 54.00 615.00 
C 53.78 613.48 53.27 612.06 53.00 611.00
C 53.17 612.66 53.65 613.82 54.00 615.00 Z"/>
</g>
<g fill="#376FC8" fill-opacity="0.38" stroke="None">
<path d="
M 57.00 631.00 
C 56.42 628.64 55.88 623.14 55.00 620.00
C 55.54 623.63 55.80 627.59 57.00 631.00 Z"/>
</g>
<g fill="#FFFEFE" fill-opacity="1.00" stroke="None">
<path d="
M 707.00 729.00 
C 706.68 734.96 707.00 741.03 707.00 747.00
C 707.00 792.70 752.95 828.14 796.00 829.00
C 801.63 829.11 807.37 829.22 813.00 829.00
C 832.02 827.79 849.72 819.74 864.00 807.00
C 862.88 835.55 855.51 881.02 819.00 883.00
C 814.40 883.75 809.54 883.74 805.00 883.00
C 789.38 882.94 776.51 868.96 775.00 854.00
C 754.06 854.61 733.68 857.41 713.00 859.00
C 723.83 921.93 791.77 935.99 846.93 921.93 C 902.08 907.86 930.00 853.90 930.00 799.00
C 930.00 790.00 930.00 781.00 930.00 772.00
C 930.00 733.69 918.36 694.94 887.70 670.30 C 857.03 645.67 809.60 642.69 774.01 653.01 C 738.41 663.33 709.05 691.29 707.00 729.00
M 858.00 737.00 
C 858.51 741.20 858.50 745.86 858.00 750.00
C 857.50 774.93 837.65 791.45 813.00 791.00 C 788.35 790.55 770.50 771.81 770.00 747.00
C 769.46 742.53 769.58 737.38 770.00 733.00
C 770.00 706.99 791.03 687.96 816.00 691.00 C 840.97 694.04 857.52 713.01 858.00 737.00 Z"/>
</g>
<g fill="#B0C4DD" fill-opacity="1.00" stroke="None">
<path d="
M 345.00 679.00 
C 349.08 674.92 354.63 668.69 359.25 665.25 C 363.86 661.81 368.03 652.84 373.00 651.00
C 367.43 652.67 363.51 661.21 358.75 664.75 C 353.99 668.29 348.87 674.47 345.00 679.00 Z"/>
</g>
<g fill="#4475CD" fill-opacity="0.33" stroke="None">
<path d="
M 68.00 667.00 
C 69.05 662.77 65.33 657.35 64.00 653.00
C 64.94 657.81 66.55 662.37 68.00 667.00 Z"/>
</g>
<g fill="#316BBC" fill-opacity="0.44" stroke="None">
<path d="
M 72.00 678.00 
C 72.62 675.49 71.50 670.32 69.00 668.00
C 70.32 671.15 70.99 674.76 72.00 678.00 Z"/>
</g>
<g fill="#2F6EC8" fill-opacity="0.37" stroke="None">
<path d="
M 81.00 700.00 
C 81.88 696.60 76.25 682.01 73.00 679.00
C 75.85 685.84 78.39 693.07 81.00 700.00 Z"/>
</g>
<g fill="#FF0604" fill-opacity="1.00" stroke="None">
<path d="
M 770.00 733.00 
C 770.00 737.66 769.91 742.34 770.00 747.00
C 770.50 771.81 788.35 790.55 813.00 791.00 C 837.65 791.45 857.50 774.93 858.00 750.00
C 858.09 745.68 858.09 741.32 858.00 737.00
C 857.52 713.01 840.97 694.04 816.00 691.00 C 791.03 687.96 770.00 706.99 770.00 733.00 Z"/>
</g>
<g fill="#1F6BC2" fill-opacity="0.42" stroke="None">
<path d="
M 86.00 711.00 
C 86.68 708.40 84.47 703.37 82.00 701.00
C 83.53 704.10 84.78 707.77 86.00 711.00 Z"/>
</g>
<g fill="#3B75CA" fill-opacity="0.33" stroke="None">
<path d="
M 136.00 793.00 
C 132.43 783.53 123.18 775.56 118.30 766.70 C 113.43 757.83 107.52 748.42 101.92 740.08 C 96.33 731.73 94.12 718.82 87.00 712.00
C 93.99 726.22 101.50 740.95 109.25 754.75 C 116.99 768.56 127.93 779.76 136.00 793.00 Z"/>
</g>
<g fill="#FF9290" fill-opacity="1.00" stroke="None">
<path d="
M 707.00 747.00 
C 707.00 741.03 706.68 734.96 707.00 729.00
C 706.07 734.70 706.45 741.29 707.00 747.00 Z"/>
</g>
<g fill="#FFAFAF" fill-opacity="1.00" stroke="None">
<path d="
M 770.00 747.00 
C 769.91 742.34 770.00 737.66 770.00 733.00
C 769.58 737.38 769.46 742.53 770.00 747.00 Z"/>
</g>
<g fill="#FF8D8D" fill-opacity="1.00" stroke="None">
<path d="
M 858.00 750.00 
C 858.50 745.86 858.51 741.20 858.00 737.00
C 858.09 741.32 858.09 745.68 858.00 750.00 Z"/>
</g>
<g fill="#FFB1B1" fill-opacity="1.00" stroke="None">
<path d="
M 930.00 799.00 
C 930.81 790.58 930.82 780.49 930.00 772.00
C 930.00 781.00 930.00 790.00 930.00 799.00 Z"/>
</g>
<g fill="#3671C8" fill-opacity="0.34" stroke="None">
<path d="
M 137.00 795.00 
C 140.11 799.03 144.13 802.97 147.00 807.00
C 145.33 802.58 139.27 796.67 137.00 795.00 Z"/>
</g>
<g fill="#3370CB" fill-opacity="0.33" stroke="None">
<path d="
M 148.00 809.00 
C 152.48 815.51 158.44 821.44 164.00 827.00
C 158.98 821.24 152.87 812.59 148.00 809.00 Z"/>
</g>
<g fill="#1D66BE" fill-opacity="0.62" stroke="None">
<path d="
M 168.00 832.00 
C 170.42 834.42 173.63 836.63 176.00 839.00
C 172.41 834.80 167.62 831.15 164.00 827.00
C 165.38 828.38 166.68 830.46 168.00 832.00 Z"/>
</g>
<g fill="#FF8786" fill-opacity="1.00" stroke="None">
<path d="
M 813.00 829.00 
C 807.37 829.22 801.63 829.11 796.00 829.00
C 801.37 829.65 807.55 829.78 813.00 829.00 Z"/>
</g>
<g fill="#6492DE" fill-opacity="0.08" stroke="None">
<path d="
M 190.00 854.00 
C 188.25 852.23 186.71 849.71 185.00 848.00
C 181.80 845.26 178.78 842.25 176.00 839.00
C 173.63 836.63 170.42 834.42 168.00 832.00
C 174.58 839.69 182.29 847.34 190.00 854.00 Z"/>
</g>
<g fill="#3783D9" fill-opacity="0.40" stroke="None">
<path d="
M 190.00 854.00 
C 204.96 866.92 221.34 879.04 236.00 892.00
C 230.70 883.12 217.20 877.76 209.75 870.25 C 202.30 862.74 193.25 855.05 185.00 848.00
C 186.71 849.71 188.25 852.23 190.00 854.00 Z"/>
</g>
<g fill="#FF7E7C" fill-opacity="1.00" stroke="None">
<path d="
M 819.00 883.00 
C 814.43 883.25 809.57 883.25 805.00 883.00
C 809.54 883.74 814.40 883.75 819.00 883.00 Z"/>
</g>
<g fill="#4589DC" fill-opacity="0.34" stroke="None">
<path d="
M 237.00 893.00 
C 260.36 909.47 284.54 923.47 310.00 936.00
C 304.14 929.90 291.40 926.45 284.23 921.77 C 277.05 917.09 266.89 910.96 259.75 907.25 C 252.60 903.55 243.62 892.60 237.00 893.00 Z"/>
</g>
<g fill="#2E7DD9" fill-opacity="0.39" stroke="None">
<path d="
M 311.00 937.00 
C 319.10 940.06 326.86 944.11 335.00 947.00
C 329.44 944.28 316.57 935.55 311.00 937.00 Z"/>
</g>
<g fill="#2F7CD9" fill-opacity="0.39" stroke="None">
<path d="
M 341.00 950.00 
C 346.32 952.69 353.25 954.46 359.00 956.00
C 353.66 953.98 345.46 951.65 341.00 950.00 Z"/>
</g>
<g fill="#2D79D1" fill-opacity="0.43" stroke="None">
<path d="
M 646.00 962.00 
C 649.82 961.29 655.00 960.18 658.32 958.32 C 661.64 956.46 667.32 957.15 670.00 955.00
C 669.91 954.32 670.03 953.31 670.00 953.00
C 667.28 952.31 661.23 957.74 657.68 957.68 C 654.13 957.62 649.11 961.15 646.00 962.00 Z"/>
</g>
<g fill="#287AD4" fill-opacity="0.43" stroke="None">
<path d="
M 378.00 962.00 
C 374.36 960.89 369.95 959.18 366.00 958.00
C 369.77 959.53 373.70 961.16 378.00 962.00 Z"/>
</g>
<g fill="#307DD3" fill-opacity="0.43" stroke="None">
<path d="
M 386.00 965.00 
C 388.97 966.14 392.87 966.48 396.00 967.00
C 392.88 964.47 388.56 965.71 386.00 965.00 Z"/>
</g>
<g fill="#2E7CD5" fill-opacity="0.41" stroke="None">
<path d="
M 615.00 970.00 
C 622.58 969.81 631.39 966.69 638.00 964.00
C 630.65 965.96 621.48 966.46 615.00 970.00 Z"/>
</g>
<g fill="#307CD1" fill-opacity="0.44" stroke="None">
<path d="
M 409.00 970.00 
C 406.42 967.97 400.53 967.08 397.00 967.00
C 400.55 968.95 404.91 968.93 409.00 970.00 Z"/>
</g>
<g fill="#2A7AD8" fill-opacity="0.42" stroke="None">
<path d="
M 410.00 971.00 
C 412.69 971.48 415.28 971.94 418.00 972.00
C 415.22 970.47 412.85 970.02 410.00 971.00 Z"/>
</g>
<g fill="#3A7ED4" fill-opacity="0.42" stroke="None">
<path d="
M 595.00 974.00 
C 601.14 973.41 608.84 972.82 614.00 970.00
C 607.47 970.15 600.90 972.86 595.00 974.00 Z"/>
</g>
<g fill="#377ED1" fill-opacity="0.43" stroke="None">
<path d="
M 429.00 974.00 
C 425.97 973.43 422.72 971.75 419.00 972.00
C 422.02 973.30 425.35 973.72 429.00 974.00 Z"/>
</g>
<g fill="#2B7CDA" fill-opacity="0.43" stroke="None">
<path d="
M 456.00 978.00 
C 453.93 976.47 451.69 977.32 449.00 977.00
C 450.99 977.42 453.29 978.26 456.00 978.00 Z"/>
</g>
<g fill="#397ED7" fill-opacity="0.42" stroke="None">
<path d="
M 465.00 979.00 
C 462.86 978.71 459.85 978.00 457.00 978.00
C 459.11 979.56 462.17 978.96 465.00 979.00 Z"/>
</g>
<g fill="#2479D4" fill-opacity="0.48" stroke="None">
<path d="
M 495.00 981.00 
C 490.33 980.36 484.33 980.42 479.00 980.00
C 483.74 980.91 489.53 981.00 495.00 981.00 Z"/>
</g>
<g fill="#257AD3" fill-opacity="0.47" stroke="None">
<path d="
M 529.00 981.00 
C 534.43 980.60 540.17 980.93 545.00 980.00
C 539.59 980.43 533.82 980.10 529.00 981.00 Z"/>
</g>
<g fill="#3A88E4" fill-opacity="0.10" stroke="None">
<path d="
M 524.00 982.00 
C 516.84 982.27 507.03 981.00 499.00 981.00
C 506.19 981.98 516.04 983.06 524.00 982.00 Z"/>
</g>
</svg>